<?xml version="1.0" encoding="UTF-8"?>
<svg id="Layer_1" data-name="Layer 1" xmlns="http://www.w3.org/2000/svg" width="435" height="507.2" xmlns:xlink="http://www.w3.org/1999/xlink" viewBox="0 0 435 507.2">
  <defs>
    <style>
      .cls-1, .cls-2, .cls-3 {
        fill: none;
      }

      .cls-2 {
        opacity: .5;
      }

      .cls-4 {
        fill: #010101;
      }

      .cls-5 {
        fill: #fff;
      }

      .cls-6 {
        fill: #fffbca;
      }

      .cls-7 {
        fill: #983610;
      }

      .cls-8 {
        fill: #a01d50;
      }

      .cls-9, .cls-10 {
        fill: #b0252a;
      }

      .cls-11 {
        fill: #cac8e3;
      }

      .cls-12 {
        fill: #d2a0c8;
      }

      .cls-13 {
        fill: #231f20;
      }

      .cls-14 {
        fill: #7c1336;
      }

      .cls-15 {
        fill: #fffcd7;
        isolation: isolate;
        opacity: .4;
      }

      .cls-10 {
        stroke: #b0252a;
        stroke-linecap: round;
        stroke-linejoin: round;
        stroke-width: .45px;
      }

      .cls-3 {
        clip-path: url(#clippath);
      }
    </style>
    <clipPath id="clippath">
      <rect class="cls-1" x="-.1" y="-.3" width="435.3" height="507.8"/>
    </clipPath>
  </defs>
  <g class="cls-3">
    <g>
      <g>
        <g class="cls-2">
          <path class="cls-15" d="m284.3,507.8H84.6l-.3-8.6v-1.2l-.2-6.1v-1.2l-2.5-78.7-.5-16.3c3.3,0,6.5.1,9.8,0h5.9c1.9,0,3.9-.1,5.8,0h2.3c1.8-.1,3.6-.1,5.4-.1,2.3,0,4.7.1,7.1,0,2.8-.1,5.6.1,8.4,0,4-.2,7.9-.1,11.9-.2,3.4-.1,6.8-.1,10.1-.1h5.8c.8,0,1.2-.4,1.4-1.1.1-.3,0-.7,0-1-.1-.8-.1-1.5-.1-2.3,0-8.4,0-16.9-.1-25.3-.1-5.2-.1-10.3-.1-15.5v-7.9c-.1-17.2-.1-34.3-.1-51.5v-7.7c0-1.4-.4-1.8-1.8-1.8-.8,0-1.7.1-2.5,0-6.6-.2-13.2,0-19.9-.1-4,0-8.1.1-12.1,0-5.1-.1-10.2,0-15.2,0-1.2,0-2.4-.1-3.6-.1-3.9.1-7.7-.1-11.6.1-1.9.1-3.8-.2-5.7-.1-1.6.1-3.1,0-4.7,0l-.6-19.4-.1-1.9-.1-1.7-.2-4.8v-2.7l-.1-2.9v-1.1l-.2-7.4v-.6l-.1-2.2v-.7l-.1-2.4v-.8l-.1-1.6v-.6l-6-194v-1.2s-.1-1.6-.1-1.6c2.8.6,7.6.8,10.1,0,3.9-1.3,5.6-1.9,7.7-4.8l.1.2h0l.5,1.3.1.1h0l.2.4,24.1,58.6.6,1.4,1.8,4.5.3.7,15.1,36.7,3,7.2v.1l5.2,12.6.7,1.7,33,80.5,11.2,27.3,2.3,5.7.1.3,5.4,13.1h-4.6c-2.8,0-5.6.4-8.4-.1h-.6c-3.2.1-6.4-.1-9.7.2-.9.1-1.9.1-2.8,0-.7,0-1.4-.1-2.1-.2-1-.1-1.4.2-1.6,1.2-.1.3-.1.6-.1.9,0,.7.1,1.5.1,2.2,0,5.6-.1,11.3-.1,16.9v36h0v55c0,.6.1,1.1.3,1.7.2.5.5.7,1,.7h3.7c2.1,0,4.1-.1,6.1-.1h13c5.7-.1,11.4,0,17,0h35.7l6.9,16.7,39.2,95.7h0Z"/>
          <path class="cls-15" d="m165.1,281.1l.3-1.8,1.3-8.8,1.3-8.7,4.1-27.3,6.1-40.3,1.8-12.1h0l1.4-9.1h0l.1-.5h0l2.7-18,3.1-20.4,5.6-36.9.7-4.8,1.2-8.2.3-2.2,2.4-16.2.3-2.3,6.8-45,.1-.5.1-.5h0l.2-1.2h0l.1-.4c2.7,3.2,4.2,1.8,9.7,1.8,3.3,0,5.3,1.8,7.6.5v.4l7.4,44.4.3,2,1.2,7.5.4,2.1,2.9,17,.1.8,9.2,55h0l1.2,7.1,2.9,17.6,3.7,22.1,11.3,67.6.2,1.3,3,18c-1.5,0-3.1,0-4.6.1-1.2,0-2.3.1-3.5,0h-.6c-2.3-.2-4.6-.1-7-.1-1.9,0-3.8.1-5.6.1-3.1,0-6.2-.1-9.3-.2-2.2-.1-4.4.2-6.6.2s-4.6-.2-6.8-.2c-2.6.1-5.2,0-7.9.2-1.6.1-3.3,0-4.9-.1-1.4-.1-2.9,0-4.3,0-2.2-.1-4.5,0-6.7.1-1.6.1-3.2-.1-4.8-.1h-7.2c-2.8,0-5.6.4-8.4-.1h-.6c-3.2.1-6.4-.1-9.7.2-.7,0-1.7,0-2.6-.1h0Z"/>
          <path class="cls-15" d="m304.4,507.8h-173.5l5.5-36.2h0l3.4-22.3,5.6-37.2,2.5-16.7h5.8c.8,0,1.2-.4,1.4-1.1.1-.3,0-.7,0-1-.1-.8-.1-1.5-.1-2.3,0-8.4,0-16.9-.1-25.3-.1-5.2-.1-10.3-.1-15.5l6.5-42.9v30.8h0v55c0,.6.1,1.1.3,1.7.2.5.5.7,1,.7h3.7c2.1,0,4.1-.1,6.1-.1h13c5.7-.1,11.4,0,17,0h47c2.9,0,5.8,0,8.7-.1,2.7-.1,5.5,0,8.2,0,2.2,0,4.5.1,6.8,0,1.9-.1,3.9-.1,5.8,0,1.1.1,1.5-.3,1.6-1.4v-28.8l7.9,47.2,16,95.5h0Z"/>
          <path class="cls-15" d="m354.2,33.9v2.5h0l-2.9,96.1-.1,2.2-.2,6.9h0l-.1,3.5-.2,7.7v1.8l-3.3,107.2-.6,19.3c-3.2,0-6.4.1-9.6.2-1.4,0-2.7-.2-4.1-.2-3.4,0-6.7,0-10.1.1-1.6.1-3.1-.1-4.7-.1-4-.1-7.9,0-11.9.1-1.3,0-2.6-.1-3.9-.1-3.4,0-6.9-.1-10.3.1-1.6.1-3.2-.1-4.7-.1-.9,0-1.1.2-1.3,1.1v6.9c0,16.4-.1,32.8-.1,49.3v32.3c0,7.7.1,15.4-.1,23.1,0,.4,0,.8.1,1.2.2.8.5,1,1.4,1h1.3c.4,0,.7.1.9.6.1.5-.1.7-.5.9-.7.3-.9.9-1,1.5-.2,1.4-.2,2.8.1,4.2.1.6.5,1,1,1.3,1.1.5,2.3.4,3.5.3s2-.9,2.3-2.1c.2-1.3.1-2.6,0-3.9-.1-.5-.4-1-.9-1.3-.3-.2-.6-.4-.5-.9s.5-.6.9-.7c.3,0,.5,0,.8-.1,1.1,0,2.1-.1,3.2-.1h5.2c.5,0,1,.1,1.3.6.3.6-.2.8-.6,1.1-.4.3-.8.6-.8,1.1-.2,1.4-.3,2.9,0,4.3.2,1,.9,1.6,1.9,1.6,1,.1,1.9.1,2.9,0s1.6-.7,1.9-1.7c.3-1.4.3-2.8.1-4.2-.1-.5-.3-.9-.8-1.2-.4-.2-.7-.6-.5-1.1s.6-.6,1-.6.7.1,1.1.1c2.7-.2,5.4.1,8.1-.1h.4c.7.1,1,.8.5,1.3l-.5.5c-.4.2-.6.6-.7,1.1-.4,2.2-.5,4.4,1.2,6.2.5.6.6.7,1.3.4.5-.2.9-.3,1.3,0,.2.1.5.2.8,0,1-.7,1.9-1.3,2.2-2.6.2-.9.1-1.9.1-2.8,0-1-.2-2-1.2-2.6-.6-.4-.4-1,.3-1.3.4-.1.8-.1,1.2-.1,2.8,0,5.6,0,8.5-.1.2,0,.5,0,.7.1.8.3.9.9.3,1.5-.1.1-.3.2-.5.4-.4.3-.6.7-.7,1.2-.1,1.3-.2,2.5,0,3.8.2,1.2.9,1.8,2.1,1.9.9.1,1.8.1,2.7,0,1.1-.1,1.7-.7,2-1.8.2-1,.1-2.1.1-3.1,0-1.1-.2-2-1.3-2.6-.5-.3-.4-.9.1-1.2.4-.2.8-.2,1.3-.2h1.6l-.5,16.3-2.9,95.7h-153.4l30.1-95.7,5.2-16.7h27.6c2.9,0,5.8,0,8.7-.1,2.7-.1,5.5,0,8.2,0,2.2,0,4.5.1,6.8,0,1.9-.1,3.9-.1,5.8,0,1.1.1,1.5-.3,1.6-1.4v-28.8c0-13.7,0-27.4-.1-41.2-.1-13.5,0-27,0-40.5v-.6c-.2-1.2-.7-1.6-1.8-1.5-.7.1-1.5.1-2.2.1-3.3,0-6.5-.1-9.8-.1-1.5,0-3.1,0-4.6.1-1.2,0-2.3.1-3.5,0h-.6l.6-1.9,2.8-8.8,2.3-7.4.4-1.3,33.8-107.3,2.3-7.2h0l4.1-13.1.5-1.7,10.8-34.2.5-1.4h0l.1-.9h0l.8-2.5,19.9-63.2.5-1.7h0l.6-2.1c.1.2.1.4.2.6,2.9,7.7,8.6,8.1,16.2,6.8h0Z"/>
        </g>
        <g>
          <ellipse class="cls-6" cx="78.1" cy="29.9" rx="10.2" ry="8.5"/>
          <path class="cls-6" d="m224.6,13.1c0,4.7-4.6,8.5-10.2,8.5-10.8,0-9.7-2.5-10.2-8.5-.3-4.7,4.6-8.5,10.2-8.5s10.2,3.7,10.2,8.5Z"/>
          <path class="cls-6" d="m358.5,29.1c-.2-1.5-4.8-8.5-10.6-8.5-11.2,0-10.2,2.5-10.6,8.5-.4,4.7,4.8,8.5,10.6,8.5s11.1-3.8,10.6-8.5Z"/>
        </g>
        <path class="cls-13" d="m361.1-.3v7.2c0,.7.3,1,.8,1.3.3.1.4.3.4.6.1.5.2,1,.2,1.5,0,.7-.3,1.2-.9,1.6-.2.1-.3.1-.4-.1-.2-.2-.3-.5-.5-.7-.1-.1-.1-.4-.4-.3-.2,0-.2.2-.2.4-.2,1.3-.5,2.7-.7,4-.2,1.2-.6,2.4-1.5,3.3-1.1,1.2-1.5,2.7-1.7,4.2-.1.6.1,1.2.5,1.7s.4,1.2.6,1.8c.1.3.3.6.5,1,.6,1.2,1.4,2.3,1.5,3.7,0,.1,0,.2.1.2.3.1.3.4.2.6,0,.2-.1.5.1.6s.3-.1.5-.2h.1c-.5.5-.3,1.1-.3,1.7,0,.3,0,.5-.3.8-.2.2-.4.6-.5,1-.4,1-1.1,1.5-2.3,1.3-1-.2-1.9-.5-2.9-.6-.4,0-.4-.2-.1-.5.3-.4.7-.8.9-1.2.9-1.8,1-3.5.1-5.3-.7-1.6-1.8-2.9-3.2-3.9-1.1-.8-2.2-1.4-3.5-1.6-.4-.1-.7-.1-1.1-.3-.6-.2-1.1-.2-1.6.1-.5.3-1.2.1-1.8.2-.9.1-1.9.2-2.8.4-.3,0-.5.1-.7.3-1.1,1-2.1,2-2.5,3.6-.1.3.1.8-.5.9-.1,0,0,.2,0,.4.1.8.2,1.7.5,2.5,0,.1,0,.2-.1.3-.2-.2-.3-.5-.4-.7-.8-2-1.6-4-2.4-6-.2-.4-.4-.5-.8-.5-1.4,0-2.7.2-4,.4-.1,0-.4.2-.5,0s-.1-.5.1-.7.5-.4.7-.6c1.1-1.1,2.2-2.2,3.1-3.4.7-.8,1.4-1.2,2.5-1.2,1.4,0,2.7-.2,4.1-.5.3-.1.5-.2.6-.5.5-1.3.7-2.5.2-3.9-.2-.6-.3-1.3-.4-2,0-.2,0-.4-.3-.5-.2.4-.4.7-.6,1.1-.2.3-.5.3-.6-.1-.4-.9-.5-1.9-.3-2.8.1-.4.3-.6.6-.8.3-.2.3-.4.3-.7,0-2.8.1-5.7.1-8.5,0-.3,0-.5.1-.8h1.2V3.7c0,1.7-.1,3.5-.1,5.2,0,.2,0,.4.2.6.3-1.3.6-2.5.9-3.7.4-2.1,1.1-4.2,1.5-6.3h16.2c-.4.2-.4.4.1.8,0-.3.4-.5.2-.8.5.2.9.2,1.2.2h0Z"/>
        <path class="cls-13" d="m95.6,25c-.1-.3-.2-.5-.4-.7l-1.5-1.5c-.1-.1-.2-.1-.2-.4.5.4.9.8,1.3,1.2-.1-.2-.2-.3-.3-.5-.7-.7-1.4-1.4-2.2-2.1-.1-.1-.2-.2-.3-.4,0-.5-.3-.6-.7-.8-.4-.2-.8-.2-1.3-.2-.6,0-1.1-.2-1.7-.2-1.1.1-2.1-.2-3.1-.4-.2,0-.4-.1-.5-.2-.3-.5-.7-1-.7-1.7,0-.5,0-1-.1-1.6,0-.2,0-.4.1-.6.2-.5.3-1,.4-1.5.1-.4.1-.8.4-1.2.2.3.3.6.5.9.1.2.2.4.5.4s.4-.2.5-.4c.1-.1.1-.3.1-.4.2-.8.1-1.7,0-2.5,0-.1-.1-.3-.2-.3-.8-.3-.8-.9-.8-1.6.1-2-.1-4-.6-5.9-.3-.9-.3-1.8-.4-2.7h-.3c0,1.7,0,3.3.1,5,0,1.4.1,2.7.1,4.1,0,.1.1.3,0,.4-.2,0-.2-.1-.2-.2-.4-.9-.6-1.9-.8-3-.3-1.8-.8-3.7-1.3-5.5-.1-.3-.2-.5-.2-.8h-16.2c.1.1.5,0,.4.3-.1.2-.3.4-.6.3-.2-.1-.3-.3-.2-.6,0,0,0-.1.1-.1h-1.2v7.2c0,.4-.1.7-.4,1-.4.3-.4.7-.4,1.3-.1-.4-.1-.7-.3-.9v3.1c.2-.1.2-.4.3-.6v.8c.1.4.5.5.7.1.2-.2.3-.5.4-.7.1-.1.1-.4.3-.3.2,0,.2.2.2.4.2,1,.5,2.1.6,3.1.2,1.8.8,3.5,2.1,4.9.5.5.7,1.2.9,1.9.5,1.5.3,2.8-.2,4.3-.9,2.5-1.7,5-2.7,7.5-.3.7-.2,1.3.1,2,.3.6.8,1.2,1.2,1.7.2.2.4.3.7.2.7-.1,1.4-.1,2.1-.2h.9c.2,0,.4.1.5-.1v-.1c.1-.2-.1-.3-.2-.5-.6-.7-1.1-1.5-1.3-2.4-.4-2.5.5-4.6,2.1-6.4,1.1-1.3,2.4-2.2,4.1-2.8.8-.3,1.7-.4,2.6-.7.3-.1.6,0,.9.1.4.3.8.3,1.2.3,1.3,0,2.5.3,3.8.4.3,0,.6.2.8.4,1,1.1,2.1,2.1,2.3,3.7,0,.1,0,.2.1.2h.1c.2,0,.4,0,.4.1.1.1.1.4.1.5v.6s0,.1-.1.1c-.1.3-.2.5-.3.8-.2.5-.4,1-.5,1.7.3-.5.5-1,.7-1.5.1-.2.2-.4.2-.6.7-1.6,1.3-3.2,1.9-4.7q.4-.9,1.3-.8c1.2.1,2.3.3,3.5.5.8.4.9.2.8-.2h0Zm-4.3-4.9c.4.1.6.3.6.6-.2-.1-.4-.3-.6-.6Z"/>
        <path class="cls-13" d="m222.4-.3c0,.5-.1,1-.5,1.3-.2.2-.2.5-.2.8v2.6c0,.4.2.8.4,1.1,1.7,2.6,3.3,5.2,5.1,7.7.5.7.7,1.4.2,2.2-.2.4-.4.9-.5,1.4s-.5.7-.9.8c-1,.3-2,.6-3,.9-.1,0-.3.1-.4,0-.1-.1,0-.2.1-.3.4-.6.7-1.2.8-1.9.1-.8.1-1.6-.2-2.3-.2-.8-.5-1.6-1-2.3-.8-1-1.7-1.8-2.8-2.4-2.2-1.1-4.4-1.1-6.8-.6-.2,0-.4.1-.5.2-.3.4-.7.6-1.2.8-1.1.5-2.2,1-3.3,1.5-.3.2-.6.4-.8.7-.8,1.2-1.5,2.5-1.6,4.1v.4c-.6,1,.1,1.9.4,2.7.1.4.4.7.5,1.1-.3-.1-.4-.3-.5-.5-1.3-1.8-2.6-3.5-3.9-5.4-.2-.3-.4-.4-.8-.2-.6.3-1.2.6-1.9.9-.7.3-1.4.6-2.1.9-.2.1-.4.1-.6,0-.1-.1-.1-.3-.1-.4s.1-.2.2-.2c.5,0,.6-.4.8-.8.9-1.7,1.9-3.4,2.8-5.2.1-.3.3-.5.7-.5q.1,0,.2-.1c1.4-.8,2.9-1.2,4.2-2,.6-.4.9-.9.9-1.6-.1-1.4-.4-2.7-1.1-3.9-.2-.3-.4-.7-.4-1.1,0-.1-.1-.2-.2-.2s-.3,0-.3.2c.1.5-.2.8-.4,1.2-.1.3-.3.4-.6.1-.4-.5-.8-1-.7-1.7h20Z"/>
      </g>
      <g>
        <path class="cls-13" d="m426.1,261.8H-.2v150.2h66.9c.2-.9.3-1,1.1-.9,1.1.1,2.2.3,3.4.4.2,0,.6,0,.5.4h66.3c.1-.2-.1-.6.3-.8.4.2.3.5.3.8h2.6v-.3c0-.2.1-.3.3-.3s.3.2.3.3v.3h50.6c0-.4,0-.8.1-1.2.1-.6.3-.8.9-.7,1.1.2,2.2.4,3.2.8.4.1.8.3,1.2.3.6.1.9.3,1.2.8h64.1c.3-.5.7-1,1-1.4.2-.2.4-.5.7-.4.3.1.3.4.3.7,0,.5.2.7.7.8.2,0,.4.1.5.4h50.7c.1-.5.1-.9.2-1.4s.4-.8.9-.8c1.9.2,3.6.8,5.2,1.9l.2.2h66.1c.7-.8,1.1-.8,1.6,0h44.2v-150.1c-3.1-.1-6.2,0-9.3,0h0Zm-29,10.3c.4-1.2,1.4-2.3,2.8-2,.4.1.8,0,1.2,0,1.2,0,1.9.4,2.4,1.6.4,1,.4,2,.3,3,0,1,0,2-.4,3.1-.3.9-.7,1.2-1.7,1.3h-2.8c-.8,0-1.3-.4-1.6-1.1-.1-.3-.2-.6-.3-.9-.2-1.7-.4-3.4.1-5h0Zm-15.8,1.2c0-1,.4-1.8,1-2.5.5-.5,1-.7,1.7-.7h1.6c1.4,0,2.4.8,2.5,2.2.1.7,0,1.5,0,2.2h.1v1.6c0,.5-.1.9-.2,1.4-.4,1.1-.9,1.5-2.1,1.5h-2.7c-.6,0-1-.3-1.3-.8-.4-.8-.7-1.6-.6-2.5v-2.4h0Zm-15.7,1.4h0c0-.5,0-1.1.1-1.6,0-.8.3-1.5.9-2.2.4-.4.8-.6,1.3-.7h2.6c1,0,1.6.7,1.9,1.6.2.5.3,1,.3,1.5-.1,1.4.1,2.8-.3,4.2-.3,1-.8,1.6-1.9,1.6h-2.8c-.8,0-1.3-.4-1.6-1-.3-.6-.5-1.3-.5-2v-1.4h0Zm-15.5,0c0-.7.1-1.5.1-2.2,0-1,1.4-2.2,2.4-2.2h2.4c.6,0,1,.3,1.4.8.3.4.5.7.6,1.1.2,1.9.4,3.7-.1,5.6-.3.8-.8,1.3-1.7,1.3-1,0-2,.1-2.9,0-1.1-.1-1.7-.7-1.9-1.7-.1-.5-.1-.9-.2-1.4-.2-.5-.1-.9-.1-1.3h0Zm-15.2-3c.4-.8,1.1-1.5,2.1-1.5h2.2c1.1,0,1.9.7,2.1,1.8.2.9.1,1.7.1,2.5,0,1,0,1.9-.1,2.8-.2,1-.7,1.7-1.7,1.7-1.1.1-2.2,0-3.3,0-.6,0-1.1-.4-1.4-1-.6-1.1-.6-5.1,0-6.3h0Zm-9.9-.8c.6.8,1,1.6,1,2.6v1.4c.1.9,0,1.9-.4,2.8-.3,1-.9,1.5-2,1.5h-2.5c-1.3,0-1.8-.5-2.1-1.8-.3-1.6-.2-3.3,0-4.9.1-1,.9-1.8,1.9-2s2-.2,3-.1c.5-.1.9.1,1.1.5h0Zm-14.8,1.5c.3,1.6.2,3.1.1,4.7-.1,1.2-1,2.2-2.5,2.1-.7,0-1.5-.1-2.2-.1-1.1,0-1.8-.7-2-1.8-.1-.4-.1-.8-.1-1.2v-1.2h0v-2c.1-1.7,1.2-2.7,2.9-2.6h1.3c1.3,0,2.3.7,2.5,2.1h0Zm-15.6-.3c.5,1.8.6,3.7,0,5.5-.3.9-.8,1.4-1.7,1.4-1,.1-1.9.1-2.9.1-1.1,0-1.6-.5-1.8-1.6-.2-1-.2-1.9-.2-3,0-.7-.1-1.5.2-2.4.3-1.1,1-1.7,2.1-1.8.7,0,1.3,0,2-.1,1.1-.1,2,.9,2.3,1.9h0Zm-22.2.6c.1-1.6,1-2.4,2.6-2.3h1.9c.7,0,1.3.3,1.6,1,.3.6.5,1.2.6,1.8.1,1.2.1,2.4,0,3.6,0,.2,0,.3-.1.5-.3,1.3-1,1.9-2.3,1.9-.8,0-1.6,0-2.4-.1-1.3-.1-1.9-.7-2-2-.1-.7-.1-1.5-.1-2.2h.1c.1-.7,0-1.4.1-2.2h0Zm-15.5-.7c.4-1.1.9-1.5,2.1-1.6h2c1.3.1,2.1.8,2.4,2.2.2,1.5.2,3.1,0,4.6-.1.5-.2.9-.5,1.3-.5.5-1.1.8-1.8.7h-1.6c-.5,0-.8,0-1.2-.1-1.1-.2-1.5-1-1.7-2.5-.1-.6,0-1.1,0-1.7,0-.9,0-1.9.3-2.9h0Zm-15.6,0c.4-1.1,1.2-1.6,2.3-1.5h2c1.2,0,1.9.6,2.1,1.8.2,1,.3,2,.3,2.9,0,.8.1,1.6-.2,2.4-.3,1.1-1,1.7-2.1,1.8h-2.4c-.9,0-1.6-.4-1.9-1.2-.7-2.2-.9-4.2-.1-6.2h0Zm-15.7.6c.1-.4.3-.8.5-1.2.4-.6.9-1,1.6-1h2.5c.9,0,1.5.5,1.9,1.4.4,1,.4,2.1.4,3s.1,1.7-.1,2.4c-.3,1.3-1.1,2-2.4,2h-1.9c-1.3,0-2.2-.7-2.5-2-.4-1.5-.4-3,0-4.6h0Zm-15.7.5c.1-1.6.9-2.5,2.6-2.6h1.9c1.2,0,2.1.7,2.3,1.9.3,1.8.4,3.6,0,5.4-.2,1-1,1.6-2.1,1.6h-2.1c-1.4,0-2.4-.9-2.5-2.3-.1-.7-.1-1.4,0-2.1-.1-.7-.2-1.3-.1-1.9h0Zm-15.4-1c.3-.9.9-1.4,1.8-1.5.9-.1,1.7-.1,2.6-.1s1.7.6,2,1.5c.1.4.2.9.2,1.4.1,1.3.2,2.7-.1,4-.2,1.2-.9,1.9-2.2,1.9h-2.1c-1.4,0-2.1-.7-2.4-2-.2-.8-.2-1.7-.1-2.5,0-.9-.1-1.8.3-2.7h0Zm-15.8.8c.1-1.6,1.3-2.5,3-2.3.3,0,.6.1.9,0,1.3-.3,2.8.9,3,2.3.1.8.1,1.5,0,2.3v2.1c0,1-.7,1.9-2,2-.9.1-1.9.1-2.8,0-1.2-.1-1.9-.8-2.1-2-.1-1.5-.1-3,0-4.4h0Zm-15.6,2.1h0v-2.1c.1-1.5,1-2.3,2.5-2.3h2c.8,0,1.4.4,1.8,1,.4.6.6,1.2.6,1.9v3.2c-.1,1.9-1,2.7-2.9,2.7h-1.8c-1.4-.2-2.3-.9-2.2-2.3,0-.8,0-1.4,0-2.1h0Zm-15.4-3.2c.4-.8.9-1.2,1.7-1.3h2.6c.8,0,1.4.5,1.7,1.2.2.5.4,1,.5,1.5.2,1.4.2,2.7-.1,4.1-.2,1.1-.9,1.9-2.1,2-1.2.1-2.4.2-3.6-.3-.5-.2-.8-.5-1-1-.4-1-.4-2.1-.3-3.2.1-1,.2-2,.6-3h0Zm-13.1-1.2h1.6c.9,0,1.5.4,1.9,1.2.3.6.6,1.3.5,2v1.2c0,.8.1,1.6-.1,2.4-.4,1.5-1.3,2.1-2.8,2-.4,0-.8,0-1.2.1-1.1.2-1.9-.2-2.4-1.1-.4-.6-.7-1.3-.7-2.1-.1-.9-.1-1.9-.1-2.8,0-.8.5-1.6,1-2.2.7-.8,1.5-.8,2.3-.7h0Zm-18.7,2.5c.1-.9.4-1.6,1.2-2.1.3-.2.6-.3.9-.4.9-.1,1.8-.1,2.7,0,.7,0,1.3.4,1.7,1,.4.6.6,1.2.7,1.9,0,1.3.1,2.6-.1,3.9-.2,1.4-1.1,2.1-2.5,2.1h-1.6c-1.5.1-2.6-.8-2.8-2.3-.1-.7,0-1.5,0-2.2h-.1c-.1-.7-.1-1.3-.1-1.9h0Zm-15.8.2c0-.9.3-1.8,1.2-2.4.7-.5,3.8-.6,4.5-.1,1.2.8,1.3,2,1.4,3.3,0,.4-.1.7-.1,1,.1.8.1,1.5,0,2.3-.2,1.2-.8,1.8-2,1.9-.7.1-1.4.1-2.1.1-1.6,0-2.6-.8-2.8-2.4-.2-1.2-.1-2.5-.1-3.7h0Zm-15.1-1.8c.3-.5.7-.8,1.3-.8,1-.1,2.1-.1,3.1,0,.7.1,1.2.5,1.5,1.1.4.8.7,1.6.7,2.5v1.1c0,.6,0,1.3-.1,1.9-.2,1.4-1,2.1-2.3,2.2-.8.1-1.7.1-2.5.1-.9,0-1.8-.9-2.1-1.8-.2-.6-.2-1.2-.2-1.8v-2.1c-.1-1,.2-1.7.6-2.4h0Zm-15.9.1c.4-.6.8-.9,1.6-1,.9,0,1.7-.1,2.6-.1,1,0,1.7.5,2,1.4.3.8.5,1.6.5,2.4,0,1.1.1,2.2-.2,3.3-.4,1.2-1.1,1.7-2.3,1.7h-1.9c-1.3.1-2.3-.9-2.6-2-.2-.8-.1-1.6-.1-2.4,0-.4,0-.8-.1-1.2-.2-.8.1-1.5.5-2.1Zm-13.5-1.1c.6.1,1.1,0,1.7,0,1.3,0,2.2.8,2.4,2.1.2.8.1,1.7.1,2.5,0,.7.1,1.3,0,2-.2,1.4-1,2.1-2.3,2.1h-2.3c-1.4-.1-2-.7-2.2-2.1s-.1-2.7-.1-4.1c-.1-1.5,1.1-2.7,2.7-2.5h0Zm-18.2,1c.4-.7,1-1,1.7-1h2.5c.9,0,1.6.5,1.9,1.4.1.2.2.4.2.6.4,1.6.4,3.3.1,4.9-.2,1.3-.9,1.9-2.2,1.9-.8.1-1.6.1-2.4,0-1-.1-1.8-.4-2.1-1.8-.2-.9-.4-1.8-.5-2.6-.1-1.3.2-2.4.8-3.4h0Zm-9.4,1.5c.1,1.3.1,2.7,0,4-.2,1.6-.7,2.1-2.3,2.2-.8.1-1.6.1-2.4,0-1.2-.1-2-.8-2.1-2.1-.1-.8-.1-1.7-.1-2.3v-2.3c0-1.1,1.2-2.3,2.5-2.2.7.1,1.3.1,2,0,1.1-.1,1.8.5,2.2,1.4.1.5.2.9.2,1.3h0Zm-23.2.5c0-1,.5-1.9,1.2-2.7.4-.4.9-.5,1.4-.5h1.9c1.6,0,2.4,1,2.7,2.3.2.8.1,1.6.1,2.4,0,.7.1,1.5-.1,2.2-.4,1.4-1,2-2.5,2h-2.2c-1.2,0-1.5-.4-2-1.5-.6-1.4-.5-2.8-.5-4.2h0Zm.7,130.5c-.3-1.4-.3-2.7,0-4.1.2-1.1,1.1-1.7,2.3-1.8.9,0,1.7,0,2.6.1s1.6.5,1.8,1.4c.4,1.4.6,2.9.2,4.4-.4,1.3-1.3,2-2.7,1.8h-1.9c-1.2-.1-2-.6-2.3-1.8h0Zm22.5.8c-.2.4-.6.7-1.1.8-.7.2-1.4.2-2.2.1-.2,0-.5.1-.9.1-.9,0-1.5-.3-2-1.1-1-1.9-.7-3.8.2-5.7.4-.7,1.1-1,1.9-1,.9,0,1.8.1,2.7.1.7,0,1.2.4,1.4,1,.9,1.9.9,3.8,0,5.7h0Zm16.4-1.4c-.3,1.6-1.2,2.3-2.8,2.2h-1.7c-1.4,0-2.2-.6-2.5-2-.2-1.2-.2-2.4,0-3.6.2-1.1,1.1-2.4,2.8-2.2.6.1,1.1.1,1.7.1,1.3-.1,2.2.9,2.4,2,.2,1.1.3,2.3.1,3.5h0Zm15.9-.7c0,.3-.1.6-.2.9-.7,1.9-1.1,2-2.8,2-.3,0-.5,0-.9-.1-.2,0-.6,0-1,.1-.7.1-1.2-.2-1.5-.7-.5-.7-.9-1.4-.8-2.3v-1.9c0-1,.5-1.7,1.2-2.3.4-.4.9-.6,1.5-.5.7.1,1.5.1,2.2.1,1.2,0,1.7.5,2,1.6.3,1,.3,2,.3,3.1h0Zm15.7.4c-.1,1-.7,1.7-1.4,2.4-.9.8-1.8.7-2.9.6-1.3,0-2-.6-2.4-1.7-.3-.8-.6-1.6-.4-2.4.1-.6.1-1.3.2-1.9.1-.9.6-1.5,1.3-2,.3-.2.7-.3,1-.3.4,0,.8,0,1.2.1h1c1.4.1,2.3.8,2.5,2.2,0,1,0,2-.1,3h0Zm15.7.4c-.2,1.4-1.1,2.1-2.5,2.1h-1.8c-1.6,0-2.6-.8-2.8-2.4-.1-1.1-.1-2.3.2-3.4.3-1.4,1.3-2.1,2.8-2h1.8c1.2,0,2.1.6,2.3,1.8.2,1.3.2,2.6,0,3.9h0Zm15.1,1.2c-.4.6-.9.8-1.6.8h-1.2c-.4,0-.9.1-1.3.1-1.1,0-1.8-.5-2.1-1.5-.4-1.6-.5-3.2,0-4.8.4-1.1,1.1-1.5,2.3-1.5h2.3c.9,0,1.6.4,1.9,1.2.6,1.9,1,3.9-.3,5.7h0Zm16.5-1.8c0,.9-.6,1.6-1.2,2.3-.2.2-.5.3-.8.3h-2.6c-1.5,0-2.6-1-2.7-2.5-.1-.9-.1-1.9,0-2.8s.7-1.7,1.3-2.3c.2-.2.5-.2.8-.2.8.1,1.5,0,2.3,0,1.8,0,2.7.8,2.9,2.6,0,.9,0,1.7,0,2.6h0Zm15.2,1.3c-.5.9-1.2,1.4-2.3,1.3-.6-.1-1.2,0-1.8,0-1.5,0-2.6-1.1-2.6-2.5,0-.9,0-1.7.1-2.6,0-.4.1-.9.3-1.2.5-1.2,1-1.4,2.2-1.4h2.4c.9,0,1.5.5,1.8,1.3.2.4.3.9.3,1.4v2.3c.1.4-.1.9-.4,1.4h0Zm3,4c-.2,0-.3-.2-.3-.3,0-.2.1-.3.3-.3s.2.2.2.4c0,.1,0,.2-.2.2Zm11.8-3c-.2.2-.5.3-.7.3h-2.9c-.6,0-1.1-.4-1.4-.8-.4-.5-.6-1.1-.7-1.8-.1-1.3-.1-2.6.3-3.9.3-1,.8-1.4,1.8-1.4h2.8c.7,0,1.3.4,1.6,1,.3.5.5,1.1.6,1.8v1.9c.1,1.2-.7,2-1.4,2.9h0Zm1.7-10.9c-.2.7-.6,1.1-1.4,1.1h-5.8c-3.4,0-6.8,0-10.1.1-4,.1-7.9,0-11.9.2-2.8.1-5.6,0-8.4,0-2.3.1-4.7,0-7.1,0-1.8,0-3.6.1-5.4.1h-2.3c-1.9-.1-3.9-.1-5.8,0h-5.9c-3.3.1-6.5,0-9.8,0h-8.8c-.8,0-1.7-.1-2.5-.1-3.3,0-6.6-.1-9.9,0-4.5.1-9-.2-13.5,0-2.2.1-4.4.2-6.6.1-1,0-2-.1-3-.1-.7,0-.9-.3-1.1-1-.1-.5-.2-1-.2-1.5v-54.9c.2-6.7-.1-13.5,0-20.2.1-10.9,0-21.9.2-32.8v-2.7c.1-1.2.6-1.5,1.7-1.4,1.9.2,3.8.2,5.6.1,2.8-.1,5.6-.1,8.5-.1,1.5,0,3,.2,4.4.2,4.1-.1,8.1-.3,12.2-.1,2.1.1,4.3.2,6.4.1,1-.1,2-.1,3-.1h4.7c1.9-.1,3.8.2,5.7.1,3.9-.1,7.7,0,11.6-.1,1.2,0,2.4.1,3.6.1,5.1,0,10.2-.1,15.2,0,4,.1,8.1-.1,12.1,0,6.6.1,13.2-.2,19.9.1h2.5c1.4,0,1.8.4,1.8,1.8v7.7c0,17.2.1,34.3.1,51.5v7.9c0,5.2,0,10.3.1,15.5.1,8.4.1,16.9.1,25.3,0,.8.1,1.5.1,2.3,0,.1.1.4,0,.8h0Zm15.2,8.5c0,.9-.5,1.6-1.1,2.1-.4.3-.8.5-1.3.5h-2.4c-.5,0-.9-.1-1.2-.5-.7-.7-1.2-1.5-1.1-2.6v-2c0-.5.2-1,.4-1.5.4-.9.9-1.3,1.9-1.3h2.7c1,0,1.6.5,1.9,1.4.1.4.2.7.2,1.1,0,.9.1,1.8,0,2.8h0Zm15.6.1c-.1,1.5-1.2,2.4-2.6,2.4h-1.5c-1.5,0-2.8-1.1-2.8-2.7v-2.7c0-.6.2-1.2.5-1.7s.8-.9,1.5-.8c.9,0,1.9-.1,2.8,0,1.4.2,2,.7,2.1,2.2v1.6h0v1.7h0Zm14.7,1.8c-.2.3-.4.6-.5,1-.2.4-.4.6-.9.3-.4-.3-.7-.3-1.1-.1-.6.3-1.2.1-1.6-.4-.3-.3-.6-.5-.9-.8-.7-.5-1-1.2-.9-2.1v-1.1c0-.7-.1-1.5.1-2.2.3-1.2.7-1.6,2-1.7,1.1,0,2.2-.2,3.3,0,.6.1,1.1.4,1.3,1,.6,2,.8,4.2-.8,6.1h0Zm1.5,2.7c-.2,0-.3-.1-.3-.2,0-.3.1-.5.4-.6.1,0,.2.1.3.2,0,.3-.1.5-.4.6Zm14.3-3c-.5.5-1.1.7-1.7.7h-1.6c-1.3.1-2.6-.8-2.9-2.1-.3-1.4-.3-2.7.1-4.1.3-1,.9-1.6,2-1.6.5,0,1,0,1.5-.1v.1h1.4c.9,0,1.5.6,1.9,1.4.5,1.2.4,2.4.3,3.7-.1.8-.5,1.5-1,2h0Zm16.4-1.5c-.2,1.2-1.3,2.1-2.5,2.1h-2.1c-1.3,0-2.4-1-2.5-2.3-.1-.5,0-1.1,0-1.6-.1-.9,0-1.9.4-2.7.3-.6.7-1,1.3-1.1,1.1-.2,2.2-.2,3.3-.1s1.9.9,2.1,2c.3,1.2.3,2.5,0,3.7h0Zm15.5,0c-.3,1.2-1.2,2-2.5,2h-1.8c-1.6-.2-2.3-.8-2.6-2.3-.2-1.2-.2-2.3,0-3.5.2-1.6,1.3-2.2,2.7-2.1h2.1c1.1,0,2,.8,2.2,1.9.2,1.4.2,2.7-.1,4Zm13.3,5.1c-.2,0-.3-.2-.3-.4,0-.1,0-.2.2-.3.2,0,.3.1.3.3s0,.4-.2.4h0Zm2.3-5.4c-.2,1.3-1,2.1-2.3,2.3-1.2.1-2.4.4-3.5-.3-.5-.3-.9-.7-1.1-1.4-.4-1.5-.4-3,0-4.5.3-1.2,1.2-1.8,2.4-1.7h1.6c.7,0,1.4.1,2,.5.5.4.9.9.9,1.5.1.6.1,1.3.2,1.9,0,.5-.1,1.1-.2,1.7h0Zm2.9,5.9c0,.2-.1.3-.4.3s-.3-.2-.3-.4v-.4c0-.3,0-.6.3-.6.4,0,.4.4.4.7v.4Zm12.6-5.7c-.2,1.1-.9,1.8-2,2-1.2.2-2.3.2-3.5-.2-.9-.3-1.3-1-1.5-1.9-.2-1.3-.1-2.6,0-3.9.1-1.1,1.2-2,2.4-1.9.4,0,.7.1,1.1.1.3,0,.7,0,1-.1,1.1-.1,2.3,1,2.4,2.1.3,1.3.4,2.5.1,3.8h0Zm1.2-9.1c0,1.1-.4,1.5-1.6,1.4-1.9-.1-3.9-.1-5.8,0-2.2.1-4.5,0-6.8,0-2.8,0-5.5-.1-8.2,0-2.9.1-5.8.1-8.7.1h-77c-2,0-4.1.2-6.1.1h-3.7c-.5,0-.8-.2-1-.7s-.3-1.1-.3-1.7v-55h0v-36c0-5.6.2-11.3.1-16.9,0-.7-.1-1.5-.1-2.2,0-.3,0-.6.1-.9.2-1,.6-1.3,1.6-1.2.7.1,1.4.2,2.1.2h2.8c3.2-.2,6.4,0,9.7-.2h.6c2.8.5,5.6.1,8.4.1h7.2c1.6,0,3.2.2,4.8.1,2.2-.1,4.5-.2,6.7-.1,1.4,0,2.9-.1,4.3,0,1.6.1,3.3.2,4.9.1,2.6-.2,5.2-.1,7.9-.2,2.3,0,4.6.2,6.8.2s4.4-.3,6.6-.2c3.1.1,6.2.2,9.3.2,1.9,0,3.8-.2,5.6-.1,2.3,0,4.6,0,7,.1h.6c1.2.1,2.4,0,3.5,0,1.5-.1,3.1-.1,4.6-.1,3.3,0,6.5,0,9.8.1.7,0,1.5,0,2.2-.1,1.2-.1,1.7.3,1.8,1.5v.6c0,13.5-.1,27,0,40.5.1,13.7.1,27.4.1,41.2v26.5c.1,1.1.2,1.8.2,2.6h0Zm46.1,13.5c-.2,0-.3-.2-.3-.4s.1-.3.4-.3c.2.1.3.2.3.5,0,.2-.2.3-.4.2h0Zm61.5-4.7c-.1,1.3-1,2-2.2,2-.9,0-1.9.1-2.8,0-.8-.1-1.4-.6-1.6-1.3-.6-1.5-.5-3.1-.2-4.6,0-.3.2-.5.4-.7,1.2-1.1,2.6-1.5,4.1-1.3.9.1,2.2,1.4,2.3,2.4v1.8h0c0,.5.1,1.1,0,1.7h0Zm3.8,7.9c-.2,0-.3-.2-.3-.4,0-.1.1-.3.2-.3.3,0,.3.2.3.4s0,.3-.2.3h0Zm11.6-7.3c-.2.7-.7,1.2-1.5,1.3-.6.1-1.1,0-1.7.1-.5,0-.9,0-1.4-.1-.9,0-1.4-.5-1.7-1.3-.3-.7-.5-1.4-.5-2.2,0-.4.1-.9.1-1.3,0-1.5,1-2.2,2.1-2.9.3-.2.6-.1,1,0,.5.1.9.2,1.4,0,.1,0,.3-.1.4,0,.9.5,1.9.9,2.1,2.1.1,1.4.1,2.9-.3,4.3h0Zm1.8-9.4c-.3,1.9-.6,2-2.1,1.7h-.3c-1.7.1-3.4,0-5.1,0-1,0-2.1.1-3.1.1-2.6-.1-5.2.1-7.8-.1h-.1c-1.2.5-2.3.1-3.5,0-.9-.1-1.7,0-2.6.1-.4,0-.7.1-1.1,0-2.5-.2-5,0-7.5-.1-.6,0-1.1.1-1.7.3-.2,0-.3.1-.4.3,0,.2.1.3.3.4.4.3.8.6,1.2.8.5.4.8.8,1,1.5.2,1.4.2,2.9-.1,4.3-.2.7-.6,1.2-1.3,1.4-1.3.2-2.5.3-3.8,0-.9-.2-1.4-.9-1.5-1.7-.3-1.4-.2-2.8,0-4.2,0-.3.3-.6.5-.8.5-.4.9-.9,1.4-1.3.3-.2.2-.5-.1-.6-.2-.1-.5-.2-.8-.2-.9-.1-1.9-.2-2.8-.1-2.4.2-4.8,0-7.1.1h-.8c-.7.1-.9.6-.5,1.1.1.2.3.3.4.4.8.6,1.1,1.3,1.1,2.2,0,.8.1,1.7,0,2.5-.1,1.7-1,2.6-2.7,2.6h-2.1c-1.3-.1-1.9-.7-2.1-2-.2-1.2-.1-2.3-.1-3.5,0-.6.2-1.1.8-1.5.5-.3,1-.8.7-1.4s-.9-.6-1.5-.5c-1,.1-2.1.1-3.1.1h-5.4c-.4,0-.9,0-1.3.2-.6.3-.7.9-.1,1.2,1.1.6,1.2,1.5,1.3,2.6.1,1,.1,2.1-.1,3.1-.3,1.1-.9,1.7-2,1.8-.9.1-1.8.1-2.7,0-1.2-.1-1.9-.7-2.1-1.9-.2-1.3-.1-2.5,0-3.8,0-.5.3-.9.7-1.2.2-.1.3-.2.5-.4.6-.6.5-1.2-.3-1.5-.2-.1-.5-.1-.7-.1-2.8.1-5.6.1-8.5.1-.4,0-.8,0-1.2.1-.7.2-.9.9-.3,1.3,1,.6,1.2,1.6,1.2,2.6,0,.9.1,1.9-.1,2.8-.3,1.3-1.2,1.9-2.2,2.6-.2.2-.5.1-.8,0-.5-.2-.9-.2-1.3,0-.7.3-.7.2-1.3-.4-1.7-1.8-1.6-4-1.2-6.2.1-.4.3-.8.7-1.1.2-.1.4-.3.5-.5.5-.6.2-1.2-.5-1.3h-.4c-2.7.2-5.4,0-8.1.1-.4,0-.7-.1-1.1-.1-.5,0-.8.2-1,.6-.2.5,0,.9.5,1.1.5.3.7.7.8,1.2.2,1.4.2,2.8-.1,4.2-.2,1-.9,1.6-1.9,1.7s-2,.1-2.9,0c-1-.1-1.7-.7-1.9-1.6-.3-1.4-.2-2.9,0-4.3,0-.5.5-.8.8-1.1.4-.3.8-.6.6-1.1-.2-.5-.7-.6-1.3-.6h-5.2c-1.1,0-2.1,0-3.2.1-.3,0-.5,0-.8.1-.4.1-.8.2-.9.7s.2.7.5.9c.5.3.8.8.9,1.3.1,1.3.3,2.6,0,3.9-.2,1.2-1.1,2-2.3,2.1-1.2,0-2.3.2-3.5-.3-.6-.3-.9-.7-1-1.3-.3-1.4-.4-2.8-.1-4.2.1-.7.3-1.2,1-1.5.3-.2.6-.4.5-.9-.1-.4-.5-.5-.9-.6h-1.3c-.8,0-1.2-.2-1.4-1-.1-.4-.1-.8-.1-1.2.2-7.7.1-15.4.1-23.1v-32.3c-.1-16.4.1-32.8.1-49.3v-6.9c.1-.8.4-1.1,1.3-1.1,1.6.1,3.2.2,4.7.1,3.4-.2,6.9-.1,10.3-.1,1.3,0,2.6.1,3.9.1,4-.1,7.9-.2,11.9-.1,1.6,0,3.2.2,4.7.1,3.4-.2,6.7-.1,10.1-.1,1.4,0,2.7.2,4.1.2,3.2-.1,6.4-.2,9.6-.2.9,0,1.8,0,2.7.1,5.2.3,10.5-.2,15.7,0,4.7.2,9.3,0,14,0,3.3,0,6.6.1,10,0,4-.1,8,.1,12,.1.7,0,1.4,0,2.1-.1,1.3-.1,1.9.3,1.9,1.6,0,1.9.1,3.8,0,5.7-.1,1.5-.1,3.1-.1,4.6v14.7c0,8.7.2,17.4.2,26,0,4.6-.1,9.2,0,13.8,0,2.2.1,4.5.1,6.7.1,10.6.1,21.1.1,31.7v7.4c-.1.1-.1.2-.2.3h0Zm13.9,9.1c-.3,1.1-.8,1.6-2,1.6h-2.6c-1,0-1.5-.4-1.9-1.4-.6-1.5-.3-3.1-.1-4.7.1-.5.5-.7,1-.7h2.2c.9-.1,1.7,0,2.6,0,.4,0,.8.2.8.7.2,1.6.4,3.1,0,4.5h0Zm-.1-125.5c-.4,1.2-.9,1.6-2.1,1.6h-2.6c-.9,0-1.4-.5-1.7-1.3-.4-1-.3-2-.2-3,0-.8,0-1.5.1-2.3.4-1.6,1.3-2.5,2.9-2.3h1.2c1.3-.1,2.1.4,2.4,1.8.5,1.8.6,3.7,0,5.5h0Zm15.6,125.7c-.4.9-1,1.4-2,1.4-.9,0-1.7.1-2.6,0s-1.5-.6-1.8-1.4c-.6-1.4-.5-3-.3-4.5.1-.6.6-.9,1.2-.9h4.5c.6,0,1.3.5,1.3,1,.1,1.5.3,3-.3,4.4h0Zm-.4-124.9c-.2.4-.6.7-1.2.7h-3c-.8,0-1.4-.5-1.7-1.2-.2-.6-.4-1.3-.4-2,0-1,0-1.9.1-2.9,0-.7.2-1.4.8-1.9.2-.2.3-.4.5-.5,1.4-.7,2.9-.6,4.3-.1.9.3,1.3,1.3,1.4,2.3.1.6,0,1.3,0,1.9v1.1c.2,1-.4,1.8-.8,2.6h0Z"/>
        <g>
          <g>
            <path class="cls-7" d="m9.8,409.8c-.2-.4-.4-.8-.7-1.1,0,0-.1-.2-.2-.2l.9-.9h.4v-.3h-1v.3h.3l-1.2,1.2v-1.2h.4v-.3h-1v.3h.3v2.3h-.4v.3h1v-.3h-.3v-.9l.4-.4.2.2c.3.4.5.8.7,1.2h.7v-.3l-.5.1h0Z"/>
            <path class="cls-7" d="m11.8,407.2c-.9,0-1.3.8-1.3,1.5,0,.8.5,1.5,1.3,1.5s1.3-.7,1.3-1.5c0-.5-.3-1.5-1.3-1.5Zm0,2.6c-.6,0-1-.6-1-1.2,0-.4.3-1.2,1-1.2.8,0,1,.8,1,1.2,0,.7-.3,1.2-1,1.2Z"/>
            <path class="cls-7" d="m15.1,407.3h-1.7v.3h.4v2.3h-.4v.3h1.7c.5-.1.9-.5.9-1.4,0-1-.4-1.4-.9-1.5Zm.5,2.1c-.2.3-.6.4-.9.4h-.5v-2.3h.5c.4,0,.6,0,.9.2.2.1.3.5.3.9-.1.3-.2.6-.3.8Z"/>
            <path class="cls-7" d="m19,409.8l-1-2.5h-1.2v.3h.7l-.9,2.3h-.3v.3h1v-.3h-.4l.2-.6h1.4l.2.6h-.5v.3h1v-.3h-.2v-.1Zm-1.8-.8l.6-1.5.6,1.5h-1.2Z"/>
            <path class="cls-7" d="m21.8,409.8c-.2-.4-.4-.8-.7-1.1,0,0-.1-.2-.2-.2l.9-.9h.4v-.3h-1v.3h.3l-1.2,1.2v-1.2h.4v-.3h-1v.3h.4v2.3h-.4v.3h1v-.3h-.4v-.9l.4-.4.2.2c.3.4.5.8.7,1.2h.7v-.3l-.5.1h0Z"/>
            <path class="cls-7" d="m96.9,409.8v-2.6l-1.1.2v.3l.9-.2v2.2h-.9v.3h2v-.3l-.9.1h0Z"/>
            <path class="cls-7" d="m100.2,407.6c-.2-.3-.4-.4-.7-.4h-.3c-.4.1-.6.6-.6,1v.4c0,.5.1,1.5.9,1.5.9,0,.9-1.1.9-1.5,0-.2,0-.7-.2-1h0Zm-.1,1c0,.5-.1,1.2-.7,1.2-.4,0-.6-.4-.6-.5-.1-.2-.1-.5-.1-.7,0-.6.1-1.2.7-1.2.2,0,.4.1.5.3.2.3.2.6.2.9h0Z"/>
            <path class="cls-7" d="m184.9,409.8v-2.6l-1.1.2v.3l.9-.2v2.2h-.9v.3h2v-.3l-.9.1h0Z"/>
            <path class="cls-7" d="m187.7,409.8v-2.6l-1.1.2v.3l.9-.2v2.2h-.9v.3h2v-.3l-.9.1h0Z"/>
            <path class="cls-7" d="m272.8,409.8v-2.6l-1.1.2v.3l.9-.2v2.2h-.9v.3h2v-.3l-.9.1h0Z"/>
            <path class="cls-7" d="m276.1,409.8h-1.3l.8-.7c.5-.4.7-.7.7-1,0-.1,0-.3-.1-.4-.2-.3-.5-.5-.8-.5-.4,0-.7.1-.9.4v.4h.3c0-.3.4-.5.6-.5.4,0,.7.2.7.6v.2c-.1.2-.4.5-.6.6l-1.1.9v.3h2v-.6h-.3v.3h0Z"/>
            <path class="cls-7" d="m360.8,409.8v-2.6l-1.1.2v.3l.9-.2v2.2h-.9v.3h2v-.3l-.9.1h0Z"/>
            <path class="cls-7" d="m363.7,408.6c.2-.1.4-.3.4-.7,0-.2,0-.3-.1-.4-.1-.2-.4-.4-.7-.4s-.6.1-.9.3l.1.2c.1-.1.4-.2.7-.2.4,0,.6.3.6.5s-.2.5-.7.5h0v.3h.5c.2,0,.4.2.4.5s-.3.6-.8.6c-.3,0-.6-.1-.8-.2l-.1.2.2.1c.3.1.6.1.8.1.5,0,1-.3,1-.8,0-.4-.4-.6-.6-.6h0Z"/>
          </g>
          <g>
            <path class="cls-7" d="m7.9,265.4c-.2-.3-.4-.4-.7-.4h-.3c-.4.1-.6.6-.6,1v.4c0,.5.1,1.5.9,1.5.9,0,.9-1.1.9-1.5,0-.3,0-.7-.2-1Zm-.1,1c0,.5-.1,1.2-.7,1.2-.4,0-.6-.4-.6-.5-.1-.2-.1-.5-.1-.7,0-.6.1-1.2.7-1.2.2,0,.4.1.5.3.2.3.2.6.2.9h0Z"/>
            <path class="cls-7" d="m10.5,265.2c-.2-.1-.4-.2-.6-.2-.5,0-.9.4-.9.9s.3.9.9.9c.3,0,.6-.1.8-.4-.1.8-.4,1.1-.9,1.2-.1,0-.3.1-.5.1h-.4v.3h.3c.2,0,.4,0,.6-.1.6-.1,1-.7,1-1.6,0-.4,0-.9-.3-1.1h0Zm-.6,1.2c-.4,0-.6-.3-.6-.6s.3-.6.6-.6c.2,0,.4.1.5.2s.2.4.2.6c-.1.2-.4.4-.7.4Z"/>
            <path class="cls-7" d="m95.3,267.5v-2.5l-1.1.2v.3l.9-.2v2.2h-.9v.3h2v-.3h-.9Z"/>
            <path class="cls-7" d="m98.5,265.4c-.2-.3-.4-.4-.7-.4h-.3c-.4.1-.6.6-.6,1v.4c0,.5.1,1.5.9,1.5.9,0,.9-1.1.9-1.5,0-.3,0-.7-.2-1Zm-.1,1c0,.5-.1,1.2-.7,1.2-.4,0-.6-.4-.6-.5-.1-.2-.1-.5-.1-.7,0-.6.1-1.2.7-1.2.2,0,.4.1.5.3.2.3.2.6.2.9h0Z"/>
            <path class="cls-7" d="m183.2,267.5v-2.5l-1.1.2v.3l.9-.2v2.2h-.9v.3h2v-.3h-.9Z"/>
            <path class="cls-7" d="m186,267.5v-2.5l-1.1.2v.3l.9-.2v2.2h-.9v.3h2v-.3h-.9Z"/>
            <path class="cls-7" d="m271.1,267.5v-2.5l-1.1.2v.3l.9-.2v2.2h-.9v.3h2v-.3h-.9Z"/>
            <path class="cls-7" d="m274.4,267.5h-1.3l.8-.7c.5-.4.8-.7.8-1,0-.1,0-.3-.1-.4-.2-.3-.5-.5-.9-.5s-.7.1-.9.4v.4h.3c0-.3.4-.5.6-.5.4,0,.7.2.7.6v.2c0,.2-.4.5-.6.6l-1.1.9v.3h2v-.6h-.3v.3Z"/>
            <path class="cls-7" d="m359.1,267.5v-2.5l-1.1.2v.3l.9-.2v2.2h-.9v.3h2v-.3h-.9Z"/>
            <path class="cls-7" d="m362.1,266.4c.2-.1.4-.3.4-.7,0-.2,0-.3-.1-.4-.1-.2-.4-.4-.7-.4s-.6.1-.9.3l.1.2c.1-.1.4-.2.7-.2.4,0,.6.3.6.5s-.2.5-.7.5h0v.3h.5c.2,0,.4.2.4.5s-.3.5-.8.5c-.3,0-.6-.1-.8-.2l-.1.2.2.1c.3.1.6.1.8.1.5,0,1-.3,1-.8-.1-.4-.5-.5-.6-.5h0Z"/>
          </g>
          <g>
            <path class="cls-7" d="m12.6,265v1h.3v-.7h.9v2.3h-.6v.3h1.5v-.3h-.7v-2.3h.9v.7h.3v-1h-2.6Z"/>
            <path class="cls-7" d="m17,266.8c.3,0,.6-.1.8-.3.1-.1.2-.4.2-.5,0-.4-.2-.9-1-.9h-1.3v.3h.4v2.3h-.4v.3h1.4v-.3h-.7v-.7h.6v-.2Zm-.6-1.5h.6c.3,0,.5.1.7.3,0,.1.1.2.1.3s0,.2-.1.4c-.1.2-.5.3-.7.3h-.5v-1.3h-.1Z"/>
            <path class="cls-7" d="m20,264v.6h.4v-.6h-.4Zm-.7,0v.6h.4v-.6h-.4Zm.5.9c-.9,0-1.3.8-1.3,1.5,0,.8.5,1.5,1.3,1.5s1.3-.7,1.3-1.5c0-.5-.3-1.5-1.3-1.5Zm0,2.7c-.6,0-1-.6-1-1.2,0-.4.3-1.2,1-1.2.8,0,1,.8,1,1.2,0,.6-.3,1.2-1,1.2Z"/>
            <path class="cls-7" d="m22.9,268v-.1h0c.4,0,.8-.1,1.1-.4l-.1-.2c-.3.2-.6.3-.9.3-.6,0-1.1-.5-1.1-1.2,0-.9.7-1.2,1-1.2s.6.1.8.4v.4h.3v-1h-.3v.3l-.1-.1c-.2-.1-.4-.2-.7-.2-.8,0-1.3.6-1.3,1.4s.4,1.4,1.1,1.5v.4h.1c.1,0,.1.1.1.1,0,0,0,.1-.1.1s-.1,0-.2-.1l-.1.2s.1.2.3.2.4-.1.4-.5c0-.1,0-.2-.1-.2q-.1-.1-.2-.1h0Z"/>
            <path class="cls-7" d="m25.9,266.5v.3h.7v.6c-.3.1-.5.2-.8.2-.8,0-1.1-.6-1.1-1.2,0-.9.5-1.2,1-1.2.3,0,.6.2.9.4v.4h.3v-1h-.3v.3c-.2-.2-.6-.3-.9-.3-.7,0-1.2.7-1.2,1.5,0,.7.4,1.5,1.4,1.5.4,0,.7-.1,1-.2v-.8h.2v-.3h-1.2v-.2Z"/>
            <path class="cls-7" d="m102.8,267.5c-.2-.4-.4-.8-.7-1.1,0,0-.1-.2-.2-.2l.9-.9h.4v-.3h-1v.3h.3l-1.2,1.2v-1.2h.4v-.3h-1v.3h.4v2.3h-.4v.3h1.1v-.3h-.4v-.8l.4-.4.2.2c.3.4.5.8.7,1.2h.7v-.3h-.6Z"/>
            <path class="cls-7" d="m104.8,264.9c-.9,0-1.3.8-1.3,1.5,0,.8.5,1.5,1.3,1.5s1.3-.7,1.3-1.5c0-.5-.3-1.5-1.3-1.5Zm0,2.7c-.6,0-1-.6-1-1.2,0-.4.3-1.2,1-1.2.8,0,1,.8,1,1.2,0,.6-.4,1.2-1,1.2Z"/>
            <path class="cls-7" d="m108.1,265h-1.7v.3h.4v2.3h-.4v.3h1.7c.5-.1.9-.5.9-1.4,0-1-.4-1.4-.9-1.5h0Zm.5,2.1c-.2.3-.6.4-.9.4h-.5v-2.3h.5c.4,0,.6,0,.9.2.2.1.3.5.3.9-.1.4-.2.6-.3.8Z"/>
            <path class="cls-7" d="m112,267.5l-1-2.5h-1.2v.3h.7l-.9,2.3h-.3v.3h1v-.3h-.4l.2-.6h1.4l.2.6h-.5v.3h1v-.3h-.2v-.1Zm-1.8-.8l.6-1.5.6,1.5h-1.2Z"/>
            <path class="cls-7" d="m114.8,267.5c-.2-.4-.4-.8-.7-1.1,0,0-.1-.2-.2-.2l.9-.9h.3v-.3h-1v.3h.3l-1.2,1.2v-1.2h.4v-.3h-1v.3h.4v2.3h-.4v.3h1v-.3h-.4v-.8l.4-.4.2.2c.3.4.5.8.7,1.2h.7v-.3h-.4Z"/>
            <path class="cls-7" d="m122.8,267.5v-2.5l-1.1.2v.3l.9-.2v2.2h-.9v.3h2v-.3h-.9Z"/>
            <path class="cls-7" d="m126,265.4c-.2-.3-.4-.4-.7-.4h-.3c-.4.1-.6.6-.6,1v.4c0,.5.1,1.5.9,1.5.9,0,.9-1.1.9-1.5,0-.3,0-.7-.2-1Zm0,1c0,.5-.1,1.2-.7,1.2-.4,0-.6-.4-.6-.5-.1-.2-.1-.5-.1-.7,0-.6.1-1.2.7-1.2.2,0,.4.1.5.3.1.3.2.6.2.9h0Z"/>
            <path class="cls-7" d="m129,267v-.3h-.5v-1.7h-.4l-1.2,1.8v.2h1.3v.5h-.5v.3h1.3v-.3h-.5v-.5h.5Zm-.7-.3h-1l1-1.5v1.5Z"/>
            <path class="cls-7" d="m130.8,265.4c.2-.1.4-.2.7-.2h.3v-.2h-.4c-.3,0-.6.1-.9.2-.4.3-.7.7-.7,1.4,0,1,.6,1.2,1,1.2.5,0,.9-.4.9-.9s-.3-.9-.9-.9c-.4,0-.6.2-.8.4.1-.3.4-.8.8-1Zm.1,1c.2,0,.4.1.5.3.1.1.1.2.1.3,0,.3-.2.6-.6.6-.3,0-.5-.2-.6-.4,0-.1-.1-.2-.1-.3.1-.3.4-.5.7-.5h0Z"/>
            <path class="cls-7" d="m139.9,266.8c.3,0,.6-.1.8-.3.1-.1.2-.4.2-.5,0-.4-.2-.9-1-.9h-1.3v.3h.4v2.3h-.4v.3h1.4v-.3h-.8v-.7h.7v-.2Zm-.7-1.5h.6c.3,0,.5.1.7.3.1.1.1.2.1.3s0,.2-.1.4c-.1.2-.4.3-.7.3h-.6v-1.3h0Z"/>
            <path class="cls-7" d="m143.5,267.5c-.2-.3-.4-.7-.6-.9.3,0,.8-.3.8-.8,0-.4-.2-.8-.8-.8h-1.4v.3h.4v2.3h-.4v.3h1v-.3h-.5v-.9h.6c.2.2.6.9.8,1.2h.6v-.3l-.5-.1h0Zm-1-1.2h-.5v-1.1h.7c.2,0,.5,0,.6.2.1.1.1.2.1.3-.1.6-.6.6-.9.6Z"/>
            <path class="cls-7" d="m146.4,266.7v.8h-1.5l1.8-2.3v-.2h-2v1h.3v-.7h1.4l-1.8,2.3v.3h2.2v-1.1h-.4v-.1Z"/>
            <path class="cls-7" d="m278.7,267.5c-.2-.4-.4-.8-.7-1.1,0,0-.1-.2-.2-.2l.9-.9h.4v-.3h-1v.3h.3l-1.2,1.2v-1.2h.4v-.3h-1v.3h.4v2.3h-.4v.3h1v-.3h-.4v-.8l.4-.4.2.2c.3.4.5.8.7,1.2h.7v-.3h-.5Z"/>
            <path class="cls-7" d="m280.7,264.9c-.9,0-1.3.8-1.3,1.5,0,.8.5,1.5,1.3,1.5s1.3-.7,1.3-1.5c0-.5-.3-1.5-1.3-1.5Zm0,2.7c-.6,0-1-.6-1-1.2,0-.4.3-1.2,1-1.2.8,0,1,.8,1,1.2,0,.6-.4,1.2-1,1.2h0Z"/>
            <path class="cls-7" d="m284,265h-1.7v.3h.4v2.3h-.4v.3h1.6c.5-.1.9-.5.9-1.4.1-1-.3-1.4-.8-1.5h0Zm.4,2.1c-.2.3-.5.4-.9.4h-.5v-2.3h.5c.4,0,.6,0,.9.2.2.1.3.5.3.9-.1.4-.1.6-.3.8h0Z"/>
            <path class="cls-7" d="m287.9,267.5l-1-2.5h-1.2v.3h.7l-.9,2.3h-.3v.3h1v-.3h-.4l.2-.6h1.4l.2.6h-.5v.3h1v-.3h-.2v-.1Zm-1.9-.8l.6-1.5.6,1.5h-1.2Z"/>
            <path class="cls-7" d="m290.7,267.5c-.2-.4-.4-.8-.7-1.1,0,0-.1-.2-.2-.2l.9-.9h.4v-.3h-1v.3h.3l-1.2,1.2v-1.2h.4v-.3h-1v.3h.4v2.3h-.4v.3h1v-.3h-.4v-.8l.4-.4.2.2c.3.4.5.8.7,1.2h.7v-.3h-.5Z"/>
            <path class="cls-7" d="m298.7,267.5v-2.5l-1.1.2v.3l.9-.2v2.2h-.9v.3h2v-.3h-.9Z"/>
            <path class="cls-7" d="m301.9,265.4c-.2-.3-.4-.4-.7-.4h-.3c-.4.1-.6.6-.6,1v.4c0,.5.1,1.5.9,1.5.9,0,.9-1.1.9-1.5,0-.3,0-.7-.2-1Zm0,1c0,.5-.1,1.2-.7,1.2-.4,0-.6-.4-.6-.5-.1-.2-.1-.5-.1-.7,0-.6.1-1.2.7-1.2.2,0,.4.1.5.3.1.3.2.6.2.9h0Z"/>
            <path class="cls-7" d="m304.9,267v-.3h-.5v-1.7h-.4l-1.2,1.8v.2h1.3v.5h-.5v.3h1.3v-.3h-.5v-.5h.5Zm-.7-.3h-1l1-1.5v1.5Z"/>
            <path class="cls-7" d="m306.7,265.4c.2-.1.4-.2.7-.2h.3v-.2h-.4c-.3,0-.6.1-.9.2-.4.3-.7.7-.7,1.4,0,1,.6,1.2,1,1.2.5,0,.9-.4.9-.9s-.3-.9-.9-.9c-.4,0-.6.2-.8.4.1-.3.4-.8.8-1h0Zm.1,1c.2,0,.4.1.5.3.1.1.1.2.1.3,0,.3-.2.6-.6.6-.3,0-.5-.2-.6-.4,0-.1-.1-.2-.1-.3.1-.3.4-.5.7-.5h0Z"/>
            <path class="cls-7" d="m315.8,266.8c.3,0,.6-.1.8-.3.1-.1.2-.4.2-.5,0-.4-.2-.9-1-.9h-1.3v.3h.4v2.3h-.4v.3h1.4v-.3h-.8v-.7h.7v-.2Zm-.7-1.5h.6c.3,0,.5.1.7.3,0,.1.1.2.1.3s0,.2-.1.4c-.1.2-.5.3-.7.3h-.5v-1.3h-.1Z"/>
            <path class="cls-7" d="m319.4,267.5c-.2-.3-.5-.7-.6-.9.3,0,.8-.3.8-.8,0-.4-.2-.8-.8-.8h-1.4v.3h.4v2.3h-.4v.3h1v-.3h-.4v-.9h.5c.2.2.6.9.8,1.2h.6v-.3l-.5-.1h0Zm-1-1.2h-.5v-1.1h.7c.2,0,.5,0,.6.2,0,.1.1.2.1.3-.1.6-.6.6-.9.6Z"/>
            <path class="cls-7" d="m322.3,266.7v.8h-1.5l1.8-2.3v-.2h-2v1h.3v-.7h1.4l-1.8,2.3v.3h2.2v-1.1h-.4v-.1Z"/>
          </g>
        </g>
      </g>
      <g>
        <path class="cls-14" d="m199,124.1c.1.2.3.2.5.3,1.6.6,2.6,2.1,2.4,3.8-.2,1.6-1.8,2.9-3.4,3-1.6.1-3.2-1.1-3.7-2.7-.4-1.5.4-3.2,1.9-3.9.2-.1.4-.1.6-.2.1,0,.4,0,.2-.3h1.5Z"/>
        <path class="cls-14" d="m297.1,124.1c.1.2.3.2.5.3,1.6.6,2.6,2.1,2.4,3.8-.2,1.6-1.8,2.9-3.4,3s-3.2-1.1-3.7-2.7c-.4-1.5.4-3.2,1.9-3.9.2-.1.4-.1.6-.2.1,0,.4,0,.2-.3h1.5Z"/>
        <path class="cls-14" d="m253,194.2h-4.1c-.4,0-.8,0-1.1-.3-.4-.4-.4-.9.1-1.2.3-.2.6-.3.9-.3.4-.1.5-.3.6-.6.1-.4.1-.8.1-1.2-.1-1.4-.1-2.8,0-4.2,0-.4,0-.8-.2-1.1-1.4-3.4-2.9-6.9-4.3-10.3-.2-.5-.6-1-1.1-1.3-.3-.2-.5-.4-.4-.8.1-.4.3-.6.7-.7.2-.1.5-.1.7-.1h7.6c.2,0,.4,0,.6.1.7.2.8.9.3,1.4-.1.1-.2.1-.2.2-.8.6-.8.8-.4,1.7.9,2.2,1.8,4.4,2.9,6.6.6,1.4,1,2.8.9,4.3s0,3.1,0,4.6c0,1,.2,1.2,1.1,1.4.6.1,1,.5.9.9,0,.4-.6.8-1.2.8-1.5.1-2.9.1-4.4.1h0Z"/>
        <path class="cls-14" d="m211.9,132.5h3.6c.4,0,.6.1.8.4,2.7,4.7,5.4,9.5,8.1,14.2.2.3.2.6.2.9v6.1c0,.4-.1.4-.5.4h-3.5c-.3,0-.4-.1-.6-.4-3.5-6.1-7.1-12.3-10.6-18.4-.4-.8-.9-1.5-1.9-1.7-.4-.1-.6-.3-.6-.7s.2-.6.6-.8c.3-.1.5-.1.8-.1,1.2.1,2.4.1,3.6.1h0Z"/>
        <path class="cls-14" d="m238,194.2h-3.9c-.3,0-.5,0-.8-.2-.5-.3-.6-.8-.2-1.2.1-.1.3-.2.4-.3.6-.2.7-.7.6-1.2-.1-.7-.3-1.4-.5-2.2-.1-.3-.2-.3-.5-.3h-3.6c-.4,0-.5-.1-.4-.5q.3-1.6,1.9-1.6h1.6c.5,0,.5-.2.4-.5-.5-2.1-1-4.2-1.5-6.3-.4-1.9-.9-3.9-1.3-5.8-.1-.6.1-1.2.2-1.8,0-.2.2-.2.4-.2h5.8c.3,0,.4.1.4.3.7,3.6,1.7,7.2,2.5,10.9.6,2.6,1.2,5.3,1.9,8,.1.7.4,1.2,1.1,1.4.4.1.6.4.5.8-.1.4-.3.6-.7.7-.4.1-.8.1-1.2.1-.9-.1-2-.1-3.1-.1h0Z"/>
        <path class="cls-14" d="m315.9,132.5h3c.3,0,.5.1.5.4,0,.9-.1,1.7-.5,2.5-2.7,6-5.4,12-8,18-.4,1-.9,1.3-1.9,1.2-1.7-.1-3.4,0-5.1,0-.4,0-.5-.1-.5-.5,0-.7.1-1.3.4-2,2.7-6.2,5.5-12.3,8.1-18.5.4-.9.8-1.3,1.8-1.2.8.1,1.5.1,2.2.1h0Z"/>
        <path class="cls-14" d="m296.4,154.6h-3.9c-.2,0-.5,0-.7-.1-.4-.1-.7-.3-.7-.7s.2-.6.5-.8c.1,0,.1-.1.2-.1.8-.1.9-.7.9-1.4-.1-5.4,0-10.9,0-16.3,0-.5-.1-.8-.6-.9h0c-.8-.3-1-.6-.9-1.1.1-.4.5-.7,1.2-.7h8.1c.3,0,.5.1.7.2.5.3.5.9,0,1.3l-.6.3c-.4.1-.6.4-.6.8v16.7c0,.6.2,1,.9,1.2.5.1.8.4.8.9-.1.4-.5.7-1,.7-1.5,0-2.9,0-4.3,0h0Z"/>
        <path class="cls-14" d="m198.7,154.6h-3.9c-.3,0-.5,0-.8-.1s-.5-.3-.6-.6c0-.3.1-.6.4-.8.2-.1.3-.2.5-.3.6-.1.8-.4.7-1v-16.6c0-.5-.2-.9-.7-1-.2-.1-.3-.1-.5-.2-.3-.2-.5-.4-.4-.8,0-.4.3-.6.6-.7.3-.1.6-.1.9-.1h7.5c.3,0,.5,0,.8.1s.5.4.5.7c0,.4-.2.6-.5.8-.1.1-.3.1-.5.2-.4.1-.6.4-.7.8v16.6c-.1.7.2,1.1.9,1.2.5.1.8.4.7.9-.1.4-.5.7-1,.7h-3.2c-.1.2-.4.2-.7.2h0Z"/>
        <path class="cls-14" d="m102.4,143.5v-8c0-.9-.1-1-.9-1.4-.4-.1-.8-.3-.7-.8.1-.5.4-.8.9-.8.2,0,.4-.1.7-.1h7.4c.3,0,.6,0,.9.1s.6.3.6.7-.1.6-.5.8c-.1.1-.3.1-.4.1-.5.1-.8.5-.8,1v16.4c0,.6.2,1,.8,1.2.4.1.7.3.8.8.1.6-.3,1-1.1,1h-8c-.5,0-.9-.1-1.2-.6-.2-.4-.1-.7.3-.9.1-.1.2-.1.4-.2.8-.4.9-.5.9-1.4-.1-2.6-.1-5.2-.1-7.9h0Z"/>
        <path class="cls-14" d="m330.5,144.8v9.3c0,.4-.1.5-.5.5h-7c-.7,0-1.2-.3-1.3-.7-.1-.5.2-.9,1-1.1.5-.1.6-.4.6-.8v-16.7c0-.6-.2-.9-.7-1.1-.2-.1-.4-.1-.5-.2-.3-.2-.4-.4-.4-.8,0-.3.2-.5.5-.6s.6-.1.9-.1h7.9c.3,0,.6,0,.9.2.3.1.5.4.5.8s-.2.6-.5.7c-.2.1-.4.2-.6.2-.5.1-.8.4-.8.9v9.5h0Z"/>
        <path class="cls-14" d="m237.9,144.8v9.2c0,.4-.1.5-.5.5h-7.2c-.4-.1-.9-.1-1-.7-.1-.6.3-.9.8-1,.9-.2.9-.8.9-1.4-.1-4.7,0-9.5-.1-14.2v-2.2c0-.4-.1-.6-.5-.8-.2-.1-.4-.2-.7-.3-.3-.2-.4-.4-.4-.8s.3-.6.6-.7c.2-.1.5-.1.8-.1h8c.3,0,.5,0,.8.1.4.1.6.4.6.8s-.3.6-.6.8c-.1,0-.1.1-.2.1-1.1.3-1.2.3-1.2,1.5-.1,3.1-.1,6.2-.1,9.2h0Z"/>
        <path class="cls-14" d="m180.1,183.1v10.5c0,.4-.1.6-.6.6h-6.9c-.2,0-.4,0-.7-.1s-.6-.3-.6-.7.2-.6.5-.8c.1-.1.2-.2.4-.2.6-.1.8-.5.8-1.1,0-.7,0-1.4-.1-2v-14.4c0-.6-.1-1-.7-1.1-.1,0-.2-.1-.3-.1-.3-.2-.6-.4-.5-.8,0-.4.3-.6.6-.7.3-.1.6-.1.8-.1h6.8c.4,0,.5.1.5.5-.1,3.5-.1,7,0,10.5h0Z"/>
        <path class="cls-14" d="m180.9,143.5v10.5c0,.4-.1.5-.5.5h-7.2c-.4-.1-.9-.1-1-.7-.1-.6.3-.9.8-1,.8-.2.9-.7.9-1.4-.1-5.4,0-10.8-.1-16.2,0-.6-.2-.9-.7-1-.2-.1-.4-.1-.5-.2-.3-.2-.4-.4-.4-.8,0-.3.2-.5.5-.6s.6-.2.9-.2h6.9c.4,0,.5.2.5.5-.1,3.6-.1,7.1-.1,10.6h0Z"/>
        <path class="cls-14" d="m348.2,143.5v10.6c0,.4-.1.5-.5.5h-7.2c-.5-.1-1-.1-1-.7-.1-.6.3-.9.8-1,.9-.2.9-.8.9-1.4-.1-4.7,0-9.5,0-14.2v-2.2c0-.4-.1-.6-.5-.8-.2-.1-.5-.2-.7-.3-.3-.2-.4-.4-.4-.8,0-.3.2-.5.5-.6s.7-.2,1-.2h6.7c.5,0,.5.2.5.6-.1,3.5-.1,7-.1,10.5h0Z"/>
        <path class="cls-14" d="m255.5,143.5v10.5c0,.4-.1.5-.5.5h-7c-.7,0-1.2-.2-1.3-.7s.2-.9,1-1.1c.5-.1.6-.4.6-.8v-16.7c0-.5-.1-.9-.7-1-.2-.1-.3-.1-.5-.2-.3-.2-.5-.4-.4-.8s.3-.6.6-.7.6-.1,1-.1h6.6c.5,0,.6.1.6.6,0,3.6,0,7,0,10.5h0Z"/>
        <path class="cls-14" d="m194.9,182.1v-6.9q0-1-.9-1.4c-.4-.2-.8-.4-.7-1,0-.4.5-.7,1-.8h8.1c.2,0,.4,0,.7.1.4.1.6.4.6.8s-.2.6-.5.7c-.1,0-.1.1-.2.1-.9.1-.9.7-.9,1.4v14.6c0,.4,0,.7.1,1,.1.8.5,1.4,1.2,1.6.4.1.5.4.5.8v.5q0,1-1,1c-2.1,0-4-.6-5.7-1.8-1.3-.9-1.9-2.2-2.1-3.8-.3-2.3-.2-4.6-.2-6.9h0Z"/>
        <path class="cls-14" d="m126.1,142.4v-6.9c0-.9-.1-.9-.9-1.3-.4-.2-.8-.4-.8-.9,0-.4.5-.8,1.1-.8h8.1c.2,0,.5,0,.7.1.4.2.6.4.6.8s-.2.6-.5.7h-.1c-1,.1-1,.9-1,1.6v14.1c0,.4,0,.8.1,1.2.1.8.4,1.5,1.3,1.7.4.1.5.3.4.7v.3c-.1,1.1-.1,1.2-1.2,1.1-2-.1-3.9-.6-5.5-1.8-1.3-.9-1.9-2.2-2-3.8-.3-2.1-.3-4.5-.3-6.8h0Z"/>
        <path class="cls-14" d="m185.1,182.6c.5.3,1.1.5,1.7.7,4,.9,5.5,5.8,2.9,8.7-1,1.1-2.3,1.7-3.9,2-1.3.2-2.6.1-3.9.2-.4,0-.5-.1-.5-.5v-.1c0-.6.3-1.1.9-1.3.9-.3,1.3-.9,1.3-2,0-1.5,0-3-.1-4.5,0-1.2-.6-1.8-1.8-2.1-.4-.1-.3-.4-.3-.6,0-.4-.2-.9.1-1.2.2-.1.5,0,.8-.1.8-.4,1.2-1,1.2-1.9,0-1.4,0-2.7-.1-4.1,0-.7-.3-1.3-.9-1.7-.2-.2-.5-.3-.8-.3-.4,0-.5-.1-.5-.5q0-1.4,1.4-1.4c1.5,0,2.9.1,4.3.6,2.6.9,4,3.1,3.5,5.8-.2,1.3-1,2.4-2.1,3.1-.9.8-2,1.2-3.2,1.2h0Z"/>
        <path class="cls-14" d="m78.9,143.5c-.2-1.9.2-3.8.9-5.6,1.1-2.5,2.9-4.4,5.5-5.4.6-.2,1.3-.3,2-.5.3-.1.5.1.4.4v1c0,.2-.1.3-.3.4-.8.4-1.1,1-1.1,1.9v13.1c0,.9-.1,1.8,0,2.7.1.8.4,1.3,1.2,1.6.2.1.3.2.3.4v.9c0,.4-.2.5-.6.4-2.5-.5-4.6-1.6-6.2-3.7-1.4-1.9-2.1-4-2.2-6.4.1-.2.1-.7.1-1.2h0Z"/>
        <path class="cls-14" d="m90.8,143.5v-7c0-.4,0-.9-.1-1.3-.1-.6-.4-1.1-.9-1.3-.4-.2-.5-.4-.4-.8v-.1c-.1-1.2,0-1.1,1.1-.9,4.4,1,6.8,4,7.7,8.2.6,3,.5,6-.8,8.9s-3.5,4.8-6.7,5.5h-.1c-.4.1-.8.4-1.1.1-.3-.4-.1-.9-.1-1.4,0-.1.1-.2.2-.3,1-.3,1.2-1.1,1.3-2v-6.1c-.1-.4-.1-.9-.1-1.5Z"/>
        <path class="cls-14" d="m117.2,154.6h-4c-.2,0-.4,0-.7-.1-.7-.3-.8-1.1-.1-1.5.9-.6.9-.5.6-1.7-.7-2-1.3-4-2-6-.4-1.1-.2-2,.5-2.9,1.2-1.6,2.3-3.2,3.4-4.8.4-.6.8-1.3.7-2.1-.1-.6-.3-1.1-.9-1.3-.2-.1-.3-.1-.5-.2-.3-.2-.7-.4-.5-.8.1-.4.4-.7.9-.8h5.8c.8,0,1.2.3,1.2.9,0,.4-.1.8-.6.9-2.3.7-3.6,2.6-4.8,4.4-.2.2-.2.4-.1.7,1.6,4.1,3.1,8.1,4.7,12.1.3.7.6,1.3,1.3,1.6.3.1.4.4.4.7s-.2.5-.5.6c-.2.1-.5.1-.7.1-1.5.2-2.8.2-4.1.2h0Z"/>
        <path class="cls-14" d="m184.2,143.9v-6.4c0-.6-.1-1.2-.2-1.8-.1-.7-.5-1.2-1.3-1.4h-.1c-.5-.4-.1-1-.2-1.5-.1-.4.3-.3.5-.3,2.8.2,5,1.5,6.6,3.7,1.3,1.8,1.8,3.8,2,6,.2,2.3,0,4.6-1,6.7-1.1,2.4-2.8,4.2-5.2,5.2-.8.3-1.6.4-2.5.5-.3,0-.4-.1-.4-.4v-.9c0-.2.1-.3.3-.4,1.2-.4,1.5-.9,1.5-2.2v-6.1c0-.4,0-.5,0-.7h0Z"/>
        <path class="cls-14" d="m210.1,172.1h2.1c.3,0,.6.1.8.2.5.3.5.8.1,1.2-.1.1-.2.1-.3.2-1.3.7-1.8,1.8-1.8,3.2v10.1c0,1.1-.1,2.2-.4,3.3-.6,2.1-2.1,3.4-4.2,4.1q-.9.3-.9-.7v-.2c0-.5.2-.9.8-1,1.8-.5,2.9-1.9,3.1-3.9.1-1.2,0-2.4,0-3.6v-8.1c0-1.3-.5-2.4-1.8-3.1-.4-.2-.7-.5-.6-1,.1-.5.6-.6,1-.6.6-.1,1.3-.1,2.1-.1h0Z"/>
        <path class="cls-14" d="m141.3,132.5h2.1c.3,0,.6.1.9.3.4.3.4.8,0,1.1-.1.1-.2.1-.3.2-1.3.7-1.8,1.8-1.8,3.2v10.1c0,1.1-.1,2.3-.4,3.4-.6,2.1-2.1,3.4-4.1,4q-1,.3-1-.8c0-.6.3-1,.9-1.2,1.7-.5,2.8-2,2.9-3.9.1-1.2,0-2.4,0-3.5v-8.2c0-1.3-.5-2.4-1.8-3-.4-.2-.8-.5-.6-1,.1-.5.6-.6,1.1-.6.7-.1,1.4-.1,2.1-.1h0Z"/>
        <path class="cls-14" d="m229.4,176.7c.3,1.4,1,2.6.5,4.2-1,3.1-1.8,6.3-2.6,9.4-.3,1.1.2,2,1.1,2.2.2,0,.3.2.5.3.3.2.3.5.3.8s-.2.4-.5.5c-.2.1-.4.1-.7.1h-3.8c-.3,0-.7-.1-1-.2-.6-.3-.6-.9-.1-1.3.1-.1.3-.2.5-.2,1.1-.4,1.7-1.3,2-2.4.6-2.4,1.3-4.8,2-7.2.6-2.1,1.2-4.2,1.8-6.2h0Z"/>
        <path class="cls-14" d="m209.4,138.6c.5.8,1,1.6,1.5,2.4.1.2.1.4.1.7v7.9c0,1.6.5,2.9,2,3.6.3.1.5.4.5.7-.1.4-.3.6-.6.7-.1,0-.3.1-.4.1h-4.4c-.4-.1-.9-.1-1-.7-.1-.5.3-.7.7-.9,1.2-.7,1.7-1.8,1.7-3.1v-11.3q-.2-.1-.1-.1h0Z"/>
        <path class="cls-14" d="m265.7,181.1c0-1.8,1.5-3.1,3-3.1,1.7-.1,3.1,1.5,3.1,3.1s-1.5,3.1-3.1,3.1c-1.6,0-3-1.4-3-3.1h0Z"/>
        <path class="cls-14" d="m265.7,191.4c0-1.9,1.6-3,3.1-3,1.7,0,3.1,1.5,3.1,3.2-.1,1.7-1.5,3.1-3.2,3-1.7,0-3.1-1.5-3-3.2h0Z"/>
        <path class="cls-14" d="m224.5,144.6c-.5-.9-1-1.7-1.5-2.5-.1-.2-.1-.4-.1-.6,0-1.6.1-3.1-.1-4.6-.1-1.2-.5-2.1-1.7-2.7-.4-.2-.7-.5-.6-.9.1-.5.5-.7,1-.7h4.3c.3,0,.6.1.9.4.4.5.3.8-.2,1.1-.2.1-.4.2-.5.3-1,.6-1.5,1.4-1.5,2.6v7.2c.1,0,.1.2,0,.4h0Z"/>
        <path class="cls-14" d="m277.2,142.1h3.4c.5,0,.7.2.7.6v2.3c0,.3-.2.4-.5.4h-7.1c-.4,0-.6-.2-.6-.6v-2.2c0-.4.3-.5.7-.5h3.4Z"/>
        <path class="cls-14" d="m158.1,142.1h3.4c.4,0,.6.2.6.6.1.8,0,1.6,0,2.3,0,.3-.2.4-.5.4h-7c-.4,0-.6-.2-.6-.6v-2.2c0-.4.3-.5.7-.5h3.4Z"/>
        <path class="cls-14" d="m257.1,182.4c-.2-.6-.5-1.1-.7-1.6-.1-.3,0-.5.1-.8.5-1,.9-2.1,1.4-3.1.1-.3.2-.6.3-.9.2-1.1-.1-1.7-1.2-2.1-.7-.3-.9-.7-.6-1.2.1-.2.4-.4.6-.4.8-.1,1.5-.1,2.3-.1h2.5c.5,0,1,.3,1,.7.1.6-.2.8-.7,1-1,.4-1.7,1.2-2.1,2.2-.9,2-1.8,4-2.7,6,0,.1,0,.2-.2.3h0Z"/>
        <path class="cls-14" d="m338,151.1v3.1c0,.3-.1.4-.4.4h-5.3c-.4,0-.5-.1-.5-.5s-.1-.8,0-1.2c.2-.4.7-.2,1.1-.4,1.4-.4,2.1-1.4,2.7-2.6.3-.6.5-1.2.7-1.8.1-.1.1-.3.2-.4.2-.4.4-.7.9-.6.5.1.6.5.6.9,0,1,0,2.1,0,3.1h0Z"/>
        <path class="cls-14" d="m245.4,151.1v3c0,.3-.1.5-.4.5h-5.3c-.3,0-.4-.1-.4-.4,0-.4-.1-.9,0-1.2.1-.4.7-.2,1.1-.4,1.4-.4,2.1-1.5,2.7-2.7.3-.6.4-1.2.7-1.8.1-.2.1-.3.2-.5.2-.4.4-.6.9-.6.4.1.6.4.6.9-.1,1.1-.2,2.2-.1,3.2-.1,0,0,0,0,0h0Z"/>
        <path class="cls-14" d="m352.9,132.5h2.8c.4,0,.5.1.5.4v5.2c0,.1,0,.3-.1.5-.1.4-.4.6-.7.6s-.5-.2-.7-.5c-.3-.7-.6-1.4-1-2-.8-1.1-1.8-1.9-3.2-2.2-.8-.1-.8-.2-.8-.9s.3-1.1,1-1.1h2.2Z"/>
        <path class="cls-14" d="m315.7,154.6h-3.2c-.3,0-.4-.1-.3-.4.3-.7.7-1.2,1.5-1.4,1.7-.4,3-1.3,3.7-3,.2-.4.4-.8.5-1.2.2-.4.4-.6.8-.6.4.1.6.4.6.8.1,1.5,0,3,0,4.5q0,1.3-1.3,1.3c-.7,0-1.5,0-2.3,0h0Z"/>
        <path class="cls-14" d="m260.2,132.5h2.8c.3,0,.4.1.4.4v5.3c0,.1,0,.3-.1.4-.1.3-.3.5-.7.6-.4.1-.6-.1-.7-.4-.3-.7-.6-1.4-1.1-2.1-.8-1.1-1.8-1.9-3.2-2.1-.8-.1-.8-.2-.8-1,0-.7.3-1,1-1,1-.1,1.7-.1,2.4-.1h0Z"/>
        <path class="cls-14" d="m260.3,154.6h-2.8c-.4,0-.5-.1-.5-.5q0-1.1,1.1-1.4c1.9-.6,3.1-1.8,3.9-3.6.1-.2.1-.4.2-.6.2-.4.4-.6.9-.5.4.1.6.3.6.7.1,1,0,2,0,3v2.5c0,.3-.1.4-.4.4-1-.1-2,0-3,0h0Z"/>
        <path class="cls-14" d="m353,154.6h-2.9c-.3,0-.4-.1-.4-.4q0-1.1,1.1-1.4c1.9-.6,3.1-1.8,3.9-3.6.1-.3.2-.5.3-.8.2-.3.4-.5.8-.4.3.1.5.3.6.6.1.6,0,1.1,0,1.7v3.8c0,.4-.1.5-.5.5-1-.1-1.9,0-2.9,0h0Z"/>
        <path class="cls-14" d="m307.5,132.5h3c.4,0,.5.1.3.4-.1.3-.3.6-.4,1-.1.3-.3.4-.6.5-.6.2-1.2.4-1.8.7-1.2.7-1.9,1.8-2.3,3.1-.2.8-.5,1.1-1,1-.4-.1-.7-.5-.7-1.2v-4.9c0-.4.1-.5.5-.5,1-.1,2-.1,3-.1h0Z"/>
        <path class="cls-14" d="m353.3,143.5v3c0,.3,0,.6-.1.9,0,.3-.2.4-.5.5s-.5,0-.6-.2c-.2-.3-.3-.6-.4-.9-.2-.8-.5-1.4-1.1-2-.1-.1-.2-.2-.3-.2-.2-.2-.6-.1-.6-.4-.1-.5,0-1,0-1.6,0-.2.2-.2.4-.3.9-.4,1.5-1.1,1.7-2.1,0-.2.1-.3.2-.5.2-.4.5-.5.8-.5.4.1.6.3.6.7v.3c-.1,1-.1,2.2-.1,3.3h0Z"/>
        <path class="cls-14" d="m260.6,143.4v3.2c0,.2,0,.4-.1.7,0,.3-.2.4-.5.5s-.5,0-.7-.2c-.3-.3-.3-.6-.4-.9-.2-.7-.5-1.4-1.1-1.9-.1-.1-.2-.2-.3-.3-.2-.2-.6-.1-.7-.4-.1-.5,0-1,0-1.5,0-.2.2-.2.3-.3,1-.5,1.6-1.2,1.8-2.3.1-.7.5-.9.9-.9.4.1.6.3.6.7.2,1.3.2,2.5.2,3.6h0Z"/>
      </g>
      <g>
        <path class="cls-13" d="m434.4,204c-.5-.3-1-.4-1.5-.5-.3,0-.6-.1-.7-.4-.1-.3-.3-.4-.6-.4-2.8-.8-5.6-1.6-8.4-2.3-.3-.1-.6-.2-.9.2-.1.1-.2.1-.4.1-.5-.1-1-.3-1.6-.4-2.7-.8-5.4-1.5-8.1-2.3-3.2-.9-6.4-1.8-9.7-2.7-1-.3-2.1-.7-3.1-.8-.9,0-1.2.2-1.4.9-.9,3.3-1.8,6.5-2.7,9.8-1.6,5.7-3.2,11.5-4.8,17.2-2,7-3.9,14.1-5.9,21.1-.6,2.3-1.3,4.7-2,7-.3,1-.1,1.5,1,1.9.7.3,1.4.4,2.2.6,4.1,1.1,8.1,2.2,12.1,3.4,2.6.7,5.1,1.5,7.8,2.1.2,0,.3.1.3.3.1.4.3.5.6.6,2.9.8,5.8,1.6,8.6,2.4.1,0,.3.1.4,0,.2-.3.4-.2.7-.1.4.1.7.2,1.1.3.7.2,1.5,0,1.7-.6,1-3.4,1.9-6.8,2.9-10.1,1.3-4.6,2.6-9.3,3.9-13.9,1-3.6,2-7.2,3.1-10.8,1.4-4.9,2.7-9.7,4.1-14.6.6-2.1,1.2-4.3,1.8-6.4.2-1,0-1.3-.5-1.6h0Zm-26.7-5.7c1.5.4,3,.8,4.5,1.3,2.7.8,5.4,1.5,8.1,2.2.3.1.6.1.9.1.1,0,.3,0,.3.2,0,.1-.1.1-.2.2-.7.4-1.5.4-2.2.7-2.9,1-5.2,2.7-7,5.2-.2.2-.4.4-.8.4-2,.1-3.8.6-5.2,2.1-1.5,1.6-2.1,3.4-1.8,5.5.2,1.6,1,3,2.2,4.1.3.3.7.5,1.1.8.1.1.3.1.4-.1.1-.2-.1-.3-.2-.3-1.7-.6-2.5-2-3.1-3.5-.4-1.1-.3-2.3-.1-3.5.4-1.6,1.5-2.7,2.7-3.7.1-.1.3-.2.5-.2.5,0,.8-.3,1.2-.5.2-.1.3-.3.6-.2,0,.1-.1.2-.2.3h.1c.9-.7,2-.4,3-.3.5.1.8.5,1.2.8.1.1.2.2.3.3,1.5.7,2.2,2.1,2.8,3.5.1.3.1.7.1,1,0,1.1.3,2.2-.4,3.2-.5.8-1.1,1.6-1.9,2.2-.7.6-1.5.9-2.3,1.4-.1,0-.1.1-.2,0s.1-.2.1-.3c-.2.1-.4.1-.6.2-.5.3-.9.3-1.3-.1-.2-.2-.4-.3-.8-.1.2.2.4.3.4.6,0,.2.2.1.4.1,1,.1,2-.1,2.9-.6,2.5-1.3,4.2-3.6,3.8-6.7-.2-1.8-1-3.2-2.4-4.4-.2-.2-.5-.3-.7-.4-.5-.3-.5-.5-.2-.9,1.8-2,4-3.4,6.6-4.1.3-.1.6-.2.9-.2.3-.1.4,0,.3.3-.4,1.5-.8,3.1-1.2,4.6-1.6,5.6-3.1,11.3-4.7,16.9-.3.9-.6,1.9-.8,2.8-.1.5-.3.4-.5.2-1.3-1.2-2.7-2.2-4.4-3-3.3-1.5-6.6-1.9-10.1-1-.2.1-.5.2-.7.1-.2-.2,0-.5.1-.7.6-2.3,1.2-4.5,1.9-6.8.7-2.6,1.5-5.3,2.2-7.9.6-2.3,1.3-4.6,1.9-6.8.4-1.4.9-2.9,1.2-4.4.7-.8,1-.7,1.3-.6h0Zm-7.9-3.3c.8,0,1.4.6,1.4,1.4,0,.6-.8,1.3-1.5,1.2-.5,0-1.2-.7-1.1-1.2-.1-.8.5-1.4,1.2-1.4h0Zm4.9,6.3c0,.2-.1.4-.4.3-.3-.1-.8.1-.7-.5,0-.2,0-.4.3-.3.3.1.7.1.8.5h0Zm-.7-1.2c0-.4.4-.3.6-.3s.3.1.2.4c0,.2,0,.6-.3.5-.1,0-.5-.2-.5-.6h0Zm-.3,1.8c.4,0,.6.1.5.6,0,.2,0,.6-.4.5-.3,0-.7-.1-.7-.5.1-.4.2-.6.6-.6Zm-.8,2.1c-.1-.1-.1-.3-.1-.4,0-.2,0-.4.1-.5s.2,0,.3.1c.2.1.4.2.6.2.1,0,.2,0,.2.1,0,.3,0,.6-.3.8-.4.1-.6-.1-.8-.3h0Zm.5.9c0,.2,0,.7-.3.6-.4,0-.2-.5-.4-.7,0-.2,0-.4.2-.3.3.1.6.1.5.4h0Zm.1-4.6c-.3-.1-.5-.1-.7-.2-.2,0-.4-.1-.3-.3,0-.2,0-.4.2-.5s.3,0,.5.1c.1.2.3.5.3.9h0Zm-.9.1c.4,0,.5.2.5.6s-.3.3-.5.4c-.3,0-.5,0-.5-.4.1-.3.1-.6.5-.6Zm.2,1.9c0,.2,0,.3-.1.2-.4-.1-.7-.1-.9-.4-.1-.1-.1-.3,0-.5.1-.1.2-.1.4,0,.2.3.6.4.6.7h0Zm-1.2-2.4c-.2-.1-.6,0-.6-.4s.3-.6.6-.6c.2,0,.4,0,.4.3,0,.4.1.7-.4.7Zm-.2.4c.2,0,.3.1.2.4,0,.1,0,.3-.4.3-.3-.1-.5-.1-.4-.5.1-.3.4-.2.6-.2h0Zm-.4,1c.4-.1.5.2.5.6,0,.2.1.4-.2.5-.3,0-.9-.4-.9-.7,0-.4.3-.4.6-.4h0Zm0,1.2c.2,0,.3,0,.3.3s-.4.6-.8.6c-.1,0-.4.1-.4-.2.1-.3.5-.7.9-.7Zm-.2,1.5c0,.3-.1.5-.5.5-.3,0-.5-.1-.5-.4,0-.2.1-.4.4-.3.2,0,.6-.1.6.2Zm-2.3,1.7c.3-.2.3-.4.2-.7-.1-.5,0-.9.5-1.1-.1.9-.4,1.7-.6,2.5,0,.2-.2.2-.3.1-.2-.2-.1-.6.2-.8Zm-5.9,20.7c.6-.8.4-1.7.7-2.6v-.1c.6-.7.5-1.6.7-2.3.2-.5.2-1.1.6-1.6.1-.1,0-.2,0-.3-.1-.3,0-.6.2-.8s.3-.5.3-.8,0-.7.3-.9c.1-.1.1-.2,0-.4-.2-.3-.1-.6,0-.9.4-.6.4-1.4.6-2.1.1-.3.1-.6.4-.8.2-.2.4-.4.2-.7-.1-.2,0-.4.1-.6.1-.1.3-.3.3-.4-.1-.7.2-1.3.4-2,.1-.3.1-.7.4-.9.2-.1.2-.3.2-.5v-.4c0-.2.1-.4.3-.3s.1.2,0,.4c-.5,1.8-1,3.6-1.5,5.4-.9,3.1-1.7,6.3-2.6,9.4-.4,1.5-.9,3-1.3,4.6,0,.1,0,.2-.1.3-.1,0-.4-.5-.2-.7h0Zm-2.9,10.2c.5-.5.3-1.1.5-1.6.3-.6,0-1.4.7-1.9.1-.1.1-.2.1-.3-.1-.4.1-.8.2-1.2.1-.6.2-1.1.6-1.5v-.1c-.4-.8.5-1.4.4-2.1,0-.1,0-.2.1-.3,0-.1.1-.2.2-.1.1.1,0,.2,0,.3-.2.8-.4,1.5-.6,2.2-.6,2.2-1.2,4.5-1.9,6.7,0,.1,0,.3-.2.4-.1,0-.2-.3-.1-.5h0Zm-5.1,15.2c-.6,0-1.2-.6-1.2-1.1,0-.8.5-1.4,1.1-1.4.8,0,1.5.6,1.5,1.4,0,.5-.6,1.1-1.4,1.1h0Zm5.5-1c-1.1-.3-2.2-.6-3.3-.9-.6-.2-.7-.3-.6-.9.3-1.4.6-2.8,1.4-4.1,0-.1.1-.2.1-.3-.2-.5,0-.9.3-1.2,0-.1.1-.1.1-.2-.2-.8.3-1.4.4-2.1v-.2c.5-.8.4-1.8.8-2.6v-.1c.1-.2.3-.3.5-.3.2.1.1.3.1.4-.6,2.2-1.2,4.4-1.8,6.5-.4,1.4-.8,2.7-1.2,4.1-.1.3,0,.5.4.6,1.2.3,2.5.7,3.7,1,.5.1.7,0,.9-.6.3-1.1.6-2.3.9-3.4,1-3.6,2-7.2,3-10.8,1-3.4,1.9-6.8,2.9-10.1,1.1-4.2,2.3-8.3,3.5-12.5.8-2.7,1.5-5.5,2.3-8.2.5-1.6.9-3.2,1.4-4.9.1-.4-.2-.6-.5-.7-.8-.3-1.6-.5-2.4-.7-.3-.1-.7-.2-1-.3-.6-.2-.8-.1-1,.5,0,.1-.1.1-.1.2-.3-.3-.3-.5-.1-.9.2-.3.5-.3.8-.3,1,.3,2.1.6,3.1.9.4.1.7.2,1.1.3.5.1.7.4.5.9-.9,3.3-1.8,6.6-2.7,10-.7,2.6-1.5,5.3-2.2,7.9-1,3.4-1.9,6.7-2.8,10.1-1,3.6-2,7.2-3.1,10.8-1,3.6-2,7.2-3,10.8-.7,1.7-.8,1.7-2.4,1.3h0Zm4.5,2.6c-.7-.2-1.5-.4-2.2-.6-.3-.1-.5-.2-.4-.6.2-.4.3-.9.4-1.3.1-.5.2-.5.5-.1.4.4.8.8,1.2,1.1.6.6,1.3,1.1,2.1,1.4.5.2.9.6,1.3.9-1-.2-2-.5-2.9-.8h0Zm13.4,2.1c0,.2-.1.3-.1.5q-.3,1-1.3.7c-1.5-.3-2.9-1-4.5-1.2.5-.1,1.1-.1,1.6-.1,1.3.1,2.7.1,4-.3.3-.1.4.1.3.4h0Zm-4-9c-3.9.1-6.5-3.2-6.5-6.3,0-4.3,3.3-6.6,6.5-6.6,3.7,0,6.5,3.1,6.5,6.9-.1,3.3-3,6.1-6.5,6Zm10.6,10.3c-.7,0-1.3-.3-1.9-.5-.2-.1-.3-.2-.3-.4.1-.2.3-.1.5-.1.1,0,.2,0,.3.1.1,0,.2,0,.2-.1s0-.2-.1-.2c-.4-.6-1.2-.7-1.8-.2-.6.6-.7.9-.3,1.6.4.7,1.1.9,1.8.4.2-.1.4-.3.5-.5.1-.1.2-.1.4,0,.1.1.1.2.1.4-.2.5-1,1-1.7,1-1.2,0-2.1-1.2-1.7-2.4.4-1.3,1.5-1.9,2.7-1.3.3.2.6.4.7.8.2.4.4.9.8,1,.1,0,.2.2.2.3-.1.1-.2.1-.4.1h0Zm3.2,4.1c-.8,0-1.5-.6-1.5-1.4,0-.7.6-1.2,1.4-1.2.7,0,1.2.5,1.3,1.2-.1.7-.6,1.4-1.2,1.4Zm14.5-47.6c-.3,1.1-.6,2.2-.9,3.4-.6,2.3-1.3,4.6-2,6.9-.7,2.4-1.4,4.8-2,7.2-1,3.7-2.1,7.4-3.1,11.2-.9,3.2-1.8,6.4-2.7,9.7-.1.4-.2.8-.3,1.2-.1.3-.2.4-.5.2-2.2-1.2-4.4-2.5-6.6-3.7-.5-.3-.7-.7-.7-1.4.2-.8.5-1.8.8-2.8,2.8-10,5.6-20,8.4-30,.1-.5.3-1.1.4-1.6.2-.7.7-1.1,1.5-1.1,2.4.1,4.9.2,7.3.2.4.1.5.3.4.6h0Zm.4-6.5c-.7,0-1.3-.6-1.3-1.3,0-.6.7-1.3,1.4-1.3.6,0,1.3.6,1.3,1.3s-.6,1.5-1.4,1.3Z"/>
        <path class="cls-13" d="m427.5,223.8c0,.7-.6,1.2-1.3,1.2-.6,0-1.2-.6-1.2-1.3,0-.6.7-1.2,1.3-1.2.6-.1,1.2.6,1.2,1.3h0Z"/>
        <path class="cls-13" d="m420.6,248c-.6,0-1.2-.6-1.1-1.2,0-.7.6-1.2,1.3-1.2.6,0,1.2.6,1.2,1.2-.1.7-.6,1.2-1.4,1.2h0Z"/>
        <path class="cls-13" d="m421.5,241.9c-.6,0-1.1-.5-1.2-1.2,0-.7.6-1.3,1.3-1.3.6,0,1.2.7,1.2,1.3-.1.6-.7,1.2-1.3,1.2h0Z"/>
        <path class="cls-13" d="m428.7,219.3c-.6,0-1.2-.6-1.2-1.2s.6-1.2,1.3-1.2c.6,0,1.2.6,1.2,1.2,0,.7-.6,1.2-1.3,1.2h0Z"/>
        <path class="cls-13" d="m420.6,230c-.6,0-1.2.6-1.2,1.3s.5,1.2,1.1,1.2c.7,0,1.3-.6,1.4-1.2.1-.6-.6-1.3-1.3-1.3h0Zm.1,1.7c-.3,0-.4-.1-.4-.4,0-.2,0-.5.4-.5s.4.3.4.5c0,.4-.3.3-.4.4h0Z"/>
        <path class="cls-13" d="m416.7,213.7c-.3-1.3-1-2.4-2.1-3.2-1-.7-2.2-.9-3.3-1.3h-.2c-1,.2-2.1.5-3.1.9-.1.1-.3.1-.3.2,0,.2.1.3.2.4.3.2.6.4.9.6.3.2.3.3,0,.6-.5.4-1,.8-1.3,1.4-.3-.4-.6-.8-.9-1.1-.2-.3-.4-.3-.6,0-.7,1.1-1,2.2-.9,3.5.2,2,1,3.7,3,4.6.8.4,1.5.5,2.3.7,1.5.3,2.7-.3,3.9-.9.2-.1.3-.3,0-.5-.3-.3-.7-.5-1-.8-.2-.2-.3-.3,0-.5.5-.3.8-.7,1.1-1.2.2-.3.3-.3.5,0s.5.7.7,1c.1.1.3.3.5,0,.8-1.5,1-2.9.6-4.4h0Zm-2.4,1.8c-.4.2-.6.7-.2,1.1.3.3.1.4,0,.7-.3.4-.7.6-1,1-.1.2-.2.1-.3,0-.8-.5-1-.5-1.4.3-.1.2-.2.2-.4.2-.5-.1-.9-.2-1.3-.3-.3-.1-.5-.2-.4-.6,0-.7-.3-1-1-.9-.3,0-.4-.1-.5-.3-.1-.5-.2-.9-.4-1.4-.1-.3.1-.3.3-.4.7-.3.8-.6.4-1.2-.2-.3-.1-.5.1-.7.4-.3.7-.6,1-1,.2-.2.3-.1.5,0,.7.4.9.4,1.3-.4.1-.2.2-.3.4-.2.2.1.5.1.7.2q.9.2,1,1.1c0,.4.3.6.7.5.5,0,.7.2.8.6,0,.3.1.5.2.8-.1.4-.1.7-.5.9h0Z"/>
        <path class="cls-13" d="m409.7,240.1c-.4.1-.8.2-1.2.5-.2.1-.5.1-.5-.2,0-.6-.1-1.2-.3-1.7-.1-.3.1-.3.3-.3.4,0,.8-.1,1.2-.1s.4-.2.3-.5c-.3-.7-.7-1.3-1.3-1.8-2-1.9-4.9-2.2-7.3-.7-1.9,1.2-2.7,3-2.8,5.1,0,.3.1.3.4.2.4-.2.8-.3,1.2-.5.2-.1.3-.1.4.2.1.6.3,1.3.6,1.9-.5.2-1,.2-1.5.2q-.6,0-.3.6c1.2,2.2,3.2,3.3,5.6,3.1,3.1-.2,5.1-2.4,5.6-5.5-.1-.4-.1-.5-.4-.5h0Zm-2.5.5c-.4.1-.5.6-.1,1,.2.3.2.5,0,.7s-.4.4-.6.6c-.3.3-.7.5-1.2.2-.4-.2-.8-.1-1,.4-.1.4-.3.4-.7.3-.2-.1-.3-.1-.5-.1-.6-.1-1-.3-1-1,0-.5-.3-.8-.9-.7-.1,0-.3,0-.3-.1-.2-.5-.4-1-.5-1.5,0-.2.1-.4.3-.5.6-.2.7-.6.4-1.1-.2-.4-.2-.6.1-.9.2-.2.4-.4.6-.5.3-.3.6-.6,1-.1.3.3,1,0,1.1-.4s.2-.4.5-.3c.5.1.9.3,1.4.4.4.1.2.4.2.7,0,.5.1.7.8.8.3,0,.5.1.6.4.1.3.2.6.2.9.1.3.1.6-.4.8h0Z"/>
        <path class="cls-13" d="m417.6,258.8c-.3,0-.9.5-.9.8,0,.4.5.8.8.8.2,0,.8-.7.9-.9,0-.2-.6-.7-.8-.7h0Zm-.1,1c-.2,0-.3-.1-.3-.2,0-.3.3-.3.6-.3.1,0,.2.1.2.2-.1.2-.3.3-.5.3h0Z"/>
        <path class="cls-13" d="m432.9,204.6c-.1,0-1,.8-1,.9,0,.3.5.8.9.8.2,0,.8-.5.8-.7,0-.2-.6-1-.7-1h0Zm-.2,1.1c-.1,0-.3-.1-.3-.3s.2-.3.4-.3.2.1.2.3c0,.2-.1.3-.3.3Z"/>
        <path class="cls-13" d="m399.7,195.7c.6-.1.8-.1.9.4s-.2,1-.7,1.1c-.4.1-.5-.3-.8-.5-.1-.1,0-.3,0-.5.1-.2.2-.4.2-.6,0-.1,0-.2.1-.2.3.1.3.2.3.3,0,.2,0,.4-.1.5s-.2.2,0,.4c.2.1.3.1.5-.1.1-.1.1-.3,0-.4-.2-.1-.3-.3-.4-.4h0Z"/>
        <path class="cls-13" d="m384.4,249.7c-.5.1-.5.6-.5.9s.4.7.6.7c.5,0,.9-.4.9-.9s-.3-.8-1-.7h0Zm.6.9c-.1.2-.4.3-.5.2-.4-.2,0-.6,0-.9.1.3.7.2.5.7h0Z"/>
      </g>
      <g>
        <path class="cls-13" d="m81.3,236c-.6-.3-1.1-.8-1.6-1.2-.2-.1-.4-.4-.7-.4.4.4.7.9,1.2,1.2.1.1.2.1.2.3-.1.1-.2.1-.3.1h-.3c-1.2-.2-2.4-.2-3.6-.1-1.1.1-2.2.2-3.3.4-1.6.3-3.1.8-4.6,1.4-4.5,1.7-8.4,4.3-11.9,7.4-.5.4-.9.8-1.4,1.2,0-.1.1-.2.1-.3,1.3-1.6,2.8-3.1,4.4-4.5,3-2.8,6.4-5,10.2-6.5,2.1-.8,4.2-1.4,6.4-1.7,1-.1,1.9-.2,2.9-.3.2,0,.5.1.6-.2.1-.2-.2-.4-.3-.5-.1-.1-.2-.1-.3-.2-.4-.2-.8-.5-1.2-.8-.6-.4-1.2-.8-1.8-1.1-.7-.4-1.5-.8-2.3-1.2.1.1.2.2.3.3.7.5,1.3,1,2,1.5.5.4,1.1.7,1.6,1.1.1.1.3.1.3.3s-.2.1-.4.1c-.5,0-1,.1-1.5.1-1.2.2-2.4.4-3.6.7-4.7,1.3-9,3.4-12.8,6.5-2.5,2-4.9,4.2-6.9,6.7-.5.7-1.2,1.3-1.7,2v-.3c.7-1.1,1.4-2.2,2.1-3.3,4.4-6.5,10.2-11.6,16.9-15.7,1.5-.9,3.2-1.7,4.8-2.5.2-.1.4-.1.4-.4,0-.2-.3-.2-.5-.2-.6-.1-1.1-.2-1.7-.4-.2,0-.4-.2-.7-.2.3.3.7.4,1,.6.2.1.6,0,.6.2s-.4.3-.6.4h-.1c-2.9,1.4-5.7,3-8.3,4.8-2.7,1.8-5.1,3.8-7.4,6.1-.4.3-.7.7-1.1,1,.9-1.3,1.9-2.4,2.9-3.6,3.6-3.9,7.6-7.2,12.2-9.7.2-.1.4-.1.3-.4-.1-.3-.3-.3-.6-.3-1.4-.1-2.9-.3-4.3-.5-.6-.1-1.1-.1-1.6-.1-.2.7.4.6.8.7,1.2.1,2.3.3,3.5.4.2,0,.4-.1.5.1.1.2-.2.3-.3.4-1.2.8-2.5,1.5-3.7,2.4-2.7,1.8-5,3.9-7.3,6.2-2.8,2.8-5.3,5.8-7.5,9.1-.4.6-.8,1.1-1.2,1.7,0-.3,0-.4.1-.6.3-.8.7-1.6,1-2.4,2-4.5,4.5-8.7,7.1-12.7,1.8-2.7,3.7-5.2,5.6-7.8.1-.2.3-.4.2-.6s-.4-.1-.6-.1-.3.1-.3.3c0,.4-.3.7-.5.9-1.5,2-3,4-4.4,6-1.7,2.4-3.4,4.7-4.9,7.2-.8,1.3-1.5,2.6-2.3,4h0c0-.2.1-.3.2-.5,1.5-3.4,3.2-6.8,4.9-10.1,1.7-3.1,3.5-6.1,5.5-9,.1-.2.3-.4.2-.6-.2-.2-.5-.1-.7,0-1.9.6-3.9,1.2-5.8,1.8-.1,0-.2.1-.3.2,1.9-.3,3.6-.8,5.4-1.3.1.2,0,.3-.1.4-1.9,3-3.8,5.9-5.5,8.9-2.1,3.6-4.1,7.2-5.6,11-.2.4-.2.9-.5,1.4,0-.5,0-.9.1-1.3.5-2.2,1-4.4,1.5-6.6,1.1-4.8,2.6-9.4,4.4-13.9.3-.8.6-1.6.9-2.5.1-.2.2-.4,0-.6-.2-.1-.3.1-.4.2-1.2.8-2.4,1.4-3.6,2.2-.5.3-.9.7-1.2,1.2-1.2,2.3-2.3,4.6-3.3,7.1-.2.5-.3,1.1-.3,1.7.1-.3.2-.6.3-.9.8-1.7,1.7-3.4,2.5-5.1.9-2.1,2.4-3.6,4.5-4.5-3,8-5.9,16-7.3,24.5-.1-.1-.1-.2-.1-.2,0-5.1-.5-10.2-.8-15.3-.2-3-.6-6-.9-9,0-.3-.1-.6-.3-.9-.2-.4-.5-.5-.8-.2-.2.2-.4.3-.7.4-.5.3-.9.6-1.3.9.6-.1,1.2-.4,1.8-.6.4-.1.6-.1.7.4.2,1.3.3,2.6.4,3.9.1,2.6.3,5.2.4,7.7.1,3.6.2,7.3.3,10.9v4c-.1-.1-.1-.2-.1-.3-.4-2.2-.7-4.5-1.1-6.8-.5-2.8-1-5.7-1.6-8.5-.7-3.4-1.4-6.8-2.3-10.1-.1-.5-.4-1-.6-1.5-.1-.1-.2-.2-.3-.3-.1,0-.2,0-.2.1,0,.6-.1,1.3-.3,1.9.2-.2.3-.4.4-.6.1-.4.3-.3.5-.1.2.1.2.3.2.5.7,3.3,1.3,6.6,1.9,10,.1.6.2,1.2.1,1.8-.3-1.4-.8-2.7-1.2-4.1-.2-.9-.4-1.8-.8-2.7-.2-.5-.5-1-.8-1.6,1.1,4,1.7,8,2.5,12s1.3,8.1,2,12.2c-.2-.1-.3-.3-.4-.4-.6-1-1.1-2-1.6-3-.6-1.2-1.5-2.3-2.3-3.4-4.2-5.5-9.4-9.9-15.1-13.9-.2-.1-.4-.1-.6-.1-1.2.5-2.5.9-3.7,1.4-.1.1-.4.1-.4.3s.2.2.3.3c2.1,1.3,4.2,2.6,6.3,4,4.5,3.1,8.7,6.7,12.4,10.8.4.5.8.9,1.1,1.5-.2-.1-.3-.2-.4-.3-3.1-3.1-6.6-5.9-10.4-8.1-3.3-2-6.8-3.6-10.6-4.4-.1,0-.2,0-.2-.1s.1-.2.2-.2c.7-.4,1.4-.8,2-1.1.3-.2.5-.3.8-.5-.1-.1-.2-.1-.2-.1-1.3.4-2.5,1.2-3.8,1.7-.1.1-.2.2-.2.3,0,.2.1.2.3.3.4.1.8.2,1.2.3,3.6,1.1,6.9,2.7,10,4.7.2.1.4.2.4.4-.1,0-.1.1-.1,0-.1,0-.2-.1-.2-.1-2.6-1.7-5.5-2.4-8.5-3.1-.4-.1-.7,0-1,.3-1.5,1.4-3.1,2.8-4.7,4.3-.9.9-1.8,1.7-2.8,2.6-.2.1-.3.3-.3.6.1.3.3.3.5.3.4.1.8.2,1.2.3,3.3.7,6.8.9,10.1,1.5,1.1.2,2.3.1,3.5.5h-.4c-2.6-.2-5.2-.4-7.8-.5-2.2-.1-4.4-.2-6.6,0-.3,0-.6.1-.7-.1-.2-.3.2-.3.3-.5,0-.1.1-.1.1-.2-.1-.1-.2,0-.2,0-.3.1-.5.4-.7.6-.2.2-.2.4.2.5,1.4.1,2.9.2,4.3.3,1.1,0,2.2.1,3.4.2,2.6.2,5.3.5,7.9.9.8.1,1.5.1,2.4.4-2.1,0-4.1.2-6.1.4-4,.4-8,.2-12-.1-.4,0-.5-.2-.2-.6.1-.2.4-.3.5-.7-.4.3-.7.4-1,.7-.5.3-.4.4.1.7,1.5.7,3.1.9,4.7.9,3.5.1,6.9.1,10.4-.1,1.4-.1,2.9-.1,4.3.1-2.7,0-5.3.3-7.9.9-2.4.5-4.8.9-7.3,1.4-1.3.3-2.6.4-4,.6-.2,0-.5.3-.7.1-.2-.3.1-.5.2-.7.1-.2.3-.4.5-.6.2-.3.5-.7.7-1-.9.7-1.5,1.5-2.2,2.3-.2.2.1.4.3.4.4,0,.8.1,1.1.1,2.5,0,4.9-.5,7.4-1,2.1-.4,4.3-.8,6.5-1.1.2,0,.5-.1.7-.1s.5-.1.7-.1c-5.5,1.2-11.1,2.4-16.6,3.5,1.3.1,2.7,0,4-.2,1.1-.2,2.3-.4,3.5-.6,2.2-.4,4.4-.7,6.6-1.1,2.8-.6,5.7-.7,8.6-.5.8.1,1.6.2,2.3.5-.6.1-1.2-.1-1.8-.1-2.4-.1-4.9-.1-7.3.2-3.4.4-6.8,1.2-10.1,1.9-1.2.3-2.4.5-3.6.8-.6.1-1.2.1-1.8.4.9,0,1.9.1,2.8,0,1.9-.3,3.8-.6,5.7-1.1,2-.6,4.1-.7,6.2-.9.7-.1,1.4-.2,2.2-.1-.1.1-.2.1-.3.1-1.7.2-3.4.5-5.1.9-3.2.9-6.5,1.5-9.7,2.5-.2.1-.5-.1-.5.2,0,.2.4.2.6.2h.2c1-.1,2-.3,3-.5,2.8-.6,5.4-1.4,8.2-1.8,3.9-.6,7.7-.8,11.6-.2,3,.5,5.9,1.5,8.5,3,.8.5,1.7.6,2.6.2.9-.4,1.9-.4,2.8-.3.5.1.9-.1,1.3-.4,1.2-.9,2.1-2.1,3.2-3.1,3.8-3.7,7.9-7,12.6-9.4,3.4-1.8,7-2.8,10.8-2.8h2.4c.1,0,.2,0,.2-.1s-.1-.1-.2-.2c-.8-.1-1.6-.3-2.5-.3h-.2c-2.9-.1-5.6.6-8.2,1.5-3.2,1.1-6.1,2.7-8.9,4.7-.3.2-.6.4-.9.6.8-.9,1.7-1.7,2.7-2.4,3.2-2.3,6.5-4.4,10.3-5.6,1.7-.5,3.4-.8,5.2-1,1.6-.1,3.3-.1,5,.2.2,0,.4.1.5-.1.2-.6,0-.8-.2-.9h0Zm-40.7,11.5c-.3-.2-.7-.4-1-.6-3.3-2-6.9-3.2-10.7-3.8-2.8-.5-5.6-.6-8.4-.9-2.1-.2-4.3-.5-6.4-.8-.2,0-.4,0-.5-.1-.1,0-.4.1-.4-.1s.1-.3.2-.4c2.1-2,4.2-3.9,6.2-6,.2-.2.3-.2.6-.2,2.5.6,5,1.4,7.4,2.3.9.3,1.7.7,2.6,1.1,1.1.4,2,1.1,2.9,1.9,2.7,2.2,5.2,4.7,7.5,7.3v.3q0-.1,0,0h0Zm1.2-3.5c-2.8-3.4-5.9-6.4-9.3-9.1-3.4-2.7-7-5-10.8-7.2.8-.3,1.5-.6,2.2-.9.3-.1.4,0,.6.1,1,.7,2,1.5,3,2.2,3.8,2.9,7.3,6,10.5,9.6,1.4,1.6,2.7,3.2,3.9,4.8,0,.1,0,.2-.1.5Z"/>
        <path class="cls-13" d="m92.6,259.6c-.4-.3-.8-.6-1.1-1-.8-.7-1.7-1.3-2.6-2,0,.2.1.3.2.4.7.8,1.4,1.5,2.2,2.2.1.1.2.1.2.3-.1.2-.2.1-.4.1-.3,0-.6-.1-.9-.2-1.7-.2-3.4-.2-5.1-.4-2.7-.3-5.4-.5-8.1-.7h-.2c-3.9-.3-7.7-.7-11.6-1-3.4-.3-6.7-.4-10.1-.7-.8-.1-1.7,0-2.5-.1,0-.1.1-.1.1-.1.3-.2.7-.4,1-.6,4.1-2.3,8.5-3.9,13.3-4.1,2.9-.1,5.6.2,8.2,1.2.4.2.9.3,1.3.5,2,.8,4,1.5,6,2.2,1.5.5,2.9.8,4.5.9-.3-.1-.6-.2-.9-.3-3.2-1-6.3-2.2-9.3-3.6-.1,0-.2-.1-.3-.1-2.2-.9-4.5-1.5-6.9-1.8,1.6-.1,3.2.2,4.7.5.7.1,1.4.3,2.1.5,2.1.5,4.1,1.2,6.1,2,1.2.5,2.4.9,3.7,1.1.2,0,.4.1.5-.1.1-.2-.1-.4-.2-.5-.2-.2-.4-.5-.6-.7-.5-.6-1-1.1-1.5-1.7-.1.1,0,.2,0,.2.4.6.8,1.3,1.2,1.9.1.1.2.2.1.4-.1.1-.3.1-.4,0-.7-.5-1.5-.7-2.3-1-2.2-.9-4.4-1.8-6.7-2.4q-.1,0-.2-.1c-2.4-.6-4.8-1-7.2-1.1-2.3-.1-4.6,0-6.8.5-.7.2-1.4.2-2,.4,1.9-.9,3.9-1.6,5.9-2.2,3.4-.9,6.9-1.2,10.3-.4.8.1,1.5.4,2.3.6,2.2.7,4.3,1.6,6.4,2.5.9.4,1.9.6,2.9.8,0-.2-.1-.3-.2-.4-1.4-1.5-2.8-3-4.3-4.5-1.6-1.6-3.2-3.2-4.8-4.7-.2-.2-.4-.5-.8-.4,2.7,2.9,5.4,5.7,8.2,8.7-.2,0-.3,0-.3-.1-2-1-4.1-1.6-6.1-2.6-.7-.3-1.5-.6-2.3-.8-.3-.1-.7-.2-1-.2-3.3-.7-6.6-.6-9.9.1-4.2.9-8,2.6-11.7,4.7-1.6.9-3.2,1.8-4.4,3.2-.7.8-.7.9-.2,1.8.1.2.3.4.1.6-.9,1.1-1.9,1.9-3.4,2-1.7.1-3.2-.2-4.8-.9-.1,0-.3-.1-.3-.2,0-.2.2-.2.3-.2.4-.1.9-.1,1.3-.4,1.8-1.1,3.7-1.2,5.7-.5.2.1.4.2.6,0-.2-.2-.3-.6-.7-.8-1.2-.6-2.4-.8-3.7-.5-1,.2-1.8.7-2.5,1.5-.1.1-.3.3-.5.1-.8-.8-1.8-1.1-2.8-1.3-2.2-.4-4.3-.6-6.5-.7-5.8-.2-11.4.6-17,2.1-3.7.9-7.3,2.1-11.1,2.5-.2,0-.3.2-.4,0s.1-.3.2-.4c1.2-1,2.1-2.2,3.1-3.3-.1.1-.2.1-.2.2-1.3,1.1-2.7,2.3-3.9,3.6-.3.3-.6.5-1,.5-.2,0-.4.1-.5-.1-.1-.2.1-.3.2-.4,1-.9,1.9-1.8,2.8-2.7.8-.9,1.7-1.8,2.5-2.8-.3-.1-.4.1-.5.2-2.4,1.9-4.7,4.1-7,6.2-.1.1-.2.2-.2.3-.1.1-.2.3-.1.5.1.2.3.1.4.1.7,0,1.4-.1,2.1-.1,6.5-.1,12.9-.2,19.4-.4,6-.2,12.1-.4,18.1-.6.6,0,1.2.1,1.8.3,1.3.6,2.8,1.1,4.2,1.1h.5c2.1-.1,3.9-1,5.2-2.6.2-.2.4-.4.7-.3,1.7.3,3.5.2,5.2.3,5.8.3,11.5.5,17.3.7.7,0,1.3,0,2,.1,5.2.2,10.3.3,15.5.5.2,0,.5.1.6-.1.2-.8,0-1.1-.2-1.2h0Zm-54.1-1.6c-4,.1-7.9.4-11.9.6-3.9.2-7.7.5-11.6.8-1.2.1-2.4.3-3.6.3h-1.1c1.1-.2,2.2-.5,3.3-.8,2.3-.5,4.6-1.2,7-1.5,1.8-.2,3.6-.4,5.4-.6,2.8-.2,5.5-.1,8.2.1,1.7.1,3.3.4,5,.8.3.1.6.1.9.2-.5,0-1.1.1-1.6.1Z"/>
        <path class="cls-13" d="m79.8,239.4c.3.1.6.2,1,.3-.3,0-.7,0-1-.1v-.2h0Z"/>
      </g>
      <g>
        <g>
          <g>
            <path class="cls-11" d="m183.8,61.4c0,.1-.1.1-.2.2-.6.2-1.2.4-1.6,1-.2.2-.3.5-.4.8v.3c.2.4-.3.9-.6,1.1l-.1.1s-.1,0-.1.1c-.6.3-1,.8-1.5,1.2-.1.1-.2.2-.3.3-.1.1-.3.2-.4.2s-.1-.2-.2-.2c0-.5-.2-1-.5-1.4.6-.1,1.3-.2,1.8-.5.2-.1.1-.4-.1-.4h-2.4c-.6,0-1-.4-1.3-.9,1.4.1,2.9,0,4.1-.6.2-.1.4-.2.5-.4.4-.4.8-.7,1.1-1.3,0-.1.1-.2.1-.2.2-.3.6-.5,1-.5.1.1.2.1.3.2.6.2.9.6.8.9h0Z"/>
            <path class="cls-12" d="m184.1,56.1c0-.3,0-.7-.1-1s-.1-.4-.3-.6c-.4-.4-1.1-.7-1.6-.9-.6-.3-1.3-.5-1.9-1-.8-.6-1.3-1.6-1.4-2.6,0-.3-.2-.6-.5-.7-.4-.3-1-.3-1.6-.4-.8,0-1.7,0-2.5.2-.4.2-.7.3-1,.6-.7.8-.4,2-.1,2.9.5,1,2,1.2,3,1.2h.5c.9,0,1.9.1,2.5.8.9,1,.7,2.4.3,3.5-.4.9-1,1.7-1.9,2.2-.4.2-.9.4-1.4.5h-.2c-.8,0-1.6-.2-2.3-.7-.6-.5-1.2-1.1-1.6-1.8-.2-.3-.1-.8.2-1s.8,0,.9.3c.5,1.1,1.4,2,2.7,2.1.2,0,.8-.2,1.1-.3.9-.4,1.7-1.2,1.9-2.2.1-.2.1-.4.1-.6.1-.6-.2-1.1-.7-1.5s-1.2-.5-1.9-.5h-.5c-1.5,0-3.5-.5-3.9-2.2-.4-1.3-.4-2.8.9-3.7.2-.2.5-.3.7-.4.2-.1.5-.2.8-.2.2,0,.5-.1.7-.1-.6-.4-1.1-1.2-.9-1.9-.1,0-.2,0-.3-.1s-.3-.1-.4-.2c-.7-.3-1.5-.3-2.2.1-.3.2-.8.4-1,.6-.3.2-.5.3-.8.5-.5.3-.9.5-1.4.7q-.1,0-.2.1c-.4.3-.3.9-.3,1.3.1.7.4,1.5.8,2.1.1.2.2.4.3.6.6,1.3.5,3-.4,4.2-.3.4-.6.7-1,.9l.1.1c.1,0,.1.1.2.2.8.8,1.9.8,2.8.2l.1-.1c.2-.4.3-.8.4-1.3.1-1.3-.3-2.6-.8-3.8-.2-.5-.3-1-.4-1.5-.5-1.6.3-3.2,1.9-3.8.1,0,.2-.1.3-.1.3-.1.5.1.6.3.1.3-.1.5-.3.6-.5.1-1,.4-1.3.8-.5.5-.7,1.5-.6,2.3.1.4.3.8.4,1.1.2.5.4,1,.6,1.5.2.3.6.6.8.8.4.3.9.6,1.3.9.9.6,1.9,1.1,2.8,1.5.8.4.2,1.5-.6,1.1-1-.5-2-1.1-2.9-1.8-.4-.3-.9-.7-1.3-1.2.1.8.1,1.7-.3,2.5-.1.2-.2.3-.3.4-.1,0-.1.1-.2.1s-.1.1-.2.1c.1,0,.1.1.1.1.6.5.9,1.3.9,2,.1.2.2.4.4.5.3.3.8.5,1.2.7.1,0,.3.1.4.1,2,.6,4.3,1.1,6.3.2.1-.1.2-.2.4-.3.4-.3.7-.7.9-1,0-.1.1-.1.1-.2.1-.3.4-.5.6-.6.3-.2.6-.3,1-.3h0c.8-.4,1.1-1.3,1.1-2.2.4.1.4-.4.4-.7h0Zm-1.4,1.4c-.2.1-.5,0-.5-.2q0-.1-.1-.2c-.1-.3-.2-.7-.3-1s-.4-.7-.7-.8c-.1,0-.3-.1-.4-.2-.7-.4-1.4-.9-1.9-1.5-.7-.8-1.5-1.4-2.4-2-.3-.2-.7-.3-1.1-.5-.1,0-.2-.1-.3-.1-.2,0-.3-.2-.3-.4s.1-.3.3-.3l.3-.1c.9-.1,1.7.3,2.3.9.4.5.9.9,1.3,1.4.1.1.3.4.4.5.3.3.6.7.9.9.3.2.5.4.8.5.1,0,.2.1.3.1.8.4,1.2,1.5,1.5,2.3.2.4.1.7-.1.7h0Z"/>
            <path class="cls-12" d="m170.9,43.7c-.5.6-2.1,1.2-2.8,1.4-.3.1-.6.2-.9.2h-.2c-.4,0-.8.2-1.2.5-.1,0-.1.1-.1.1-.3-.1-.6-.3-.9-.6-.2-.2-.5-.4-.6-.7-.2-.2-.4-.4-.7-.5h.1c.4-.2.9-.2,1.3-.2.7,0,1.3.1,2,.2.8.1,1.6.3,2.4.2.3-.1.6-.2.9-.4.2-.2.5-.2.7-.2h0Z"/>
            <path class="cls-12" d="m156.8,54.4c-.2,0-.4-.1-.5-.2-1.1-.4-1.6-1.5-1.7-2.6v-1c.1,0,.1.1.2.1,1.1.8,1.7,1.9,1.9,3.2,0,.2,0,.4.1.5h0Z"/>
            <path class="cls-12" d="m159.1,49.8c-.2.4.3.7.6.3.2-.5.7-.8,1.3-.8.2,0,.4.1.5.2.3.1.7,0,1,0h0c-.1.5,0,1,.2,1.5,0,.1.1.2.1.2,1.3,1.4,1.1,3.3.5,5-.9,0-1.8.1-2.7-.2-.6-.1-1.1-.4-1.6-.8-.5-.3-1.1-.6-1.7-.8h-.1c0-1-.1-1.9-.6-2.8-.2-.3-.4-.7-.7-.9.1-.2.2-.3.3-.5.3-.4.5-.7.9-.9-.2,1,0,2.1.9,2.5.2.1.5.2.7.3.7.4,1.5.9,1.9,1.5q.1.1.1.2c-.1.2.1.5.3.5.4.2.7-.2.7-.6-.2-1.1-2.4-2.3-3.4-2.6-.9-.3-1-1.4-.7-2.3h0c.3-.8.7-1.6,1.4-2,.2-.1.4-.2.7-.2.6,0,1.2.1,1.8.1s2.1.1,1.9-.9c-.2-.7-.9-.6-1.1-.1-.2,0-.5.1-.8.1h-1.8c-1.1,0-1.9,1-2.2,1.9-.1.2-.2.5-.2.7h-.4c-.1-.1-.1-.2-.1-.3s0-.2-.1-.3c-.1-.5.1-1,.4-1.3h0l.1-.1c.2-.3.6-.5.9-.7.4-.2.7-.4,1-.5.7-.3,1.5-.6,2.3-.8.6-.2,1.5-.2,2,.1.1.1.2.2.2.3.1.1.2.2.2.3.2.2.4.5.6.7.1.1.2.2.3.2-.1.1-.2.2-.3.2-.3.2-.6.5-.9.8-.3.3-.6.6-.8,1-.1.2-.2.5-.3.7h-.6c-.1,0-.2,0-.3-.1-.8,0-1.8.3-2.4,1.2h0Z"/>
            <path class="cls-12" d="m183.9,51.9c-.2-.6-.5-1.2-.6-1.8-.1-.9-.2-1.9-1.2-2.3-.3-.1-.6-.2-.9-.4-.7-.5-1.4-1-1.9-1.7-.2-.2-.3-.5-.3-.9,0-.1,0-.3-.1-.4-.2-.6-.9-1-1.5-1.2-.2,0-.3-.1-.5-.1h-.5c-.8,0-1.7-.3-2.5-.4-.4-.1-.9-.3-1.3-.5-.7-.3-1.4-.5-2.1-.6-.2,0-.5,0-.6.1-.1,0-.2.1-.3.1-.4.2-.9.4-1.3.4-.9.1-1.7,0-2.5,0-1.9-.1-3.9.1-5.4,1.2-.3.3-.7.5-1.1.7-.9.5-2,.8-3,1-.5.1-1,.2-1.3.6-.7.8-.5,2.1-.7,3.1,0,.2-.1.5,0,.7,0,.1.1.1.1.2.4.1.8.3,1.1.6.2-.6.5-1.2,1-1.4-.1-.6-.2-1.2-.1-1.9.1-.2.1-.4.3-.6.1-.2.3-.4.4-.5.2-.2.5-.3.7-.5.7-.4,1.4-.8,2.2-1.1s1.7-.6,2.6-.5h.3c.2-.5.8-.8,1.3-.9.2,0,.4-.1.7-.1h.8c1,0,1.9.3,2.9.4.5,0,.9,0,1.3-.3.1-.1.2-.1.3-.2.8-.3,1.8,0,2.5.5.8.5,1.8.5,2.7.3.1,0,.4-.1.5-.1h.9c.7.1,1.4.5,1.9,1.1.1.2.3.5.2.7-.1.7-.2,1.5.4,1.9l.1.1s.1,0,.1.1c.2.1.5.2.7.3.9.4,1,1.6.8,2.5v.1c-.3.6-1.2.2-.9-.5,0-.4.2-1-.1-1.3-.1-.1-.2-.2-.4-.2-.6-.2-1.1-.7-1.3-1.3s-.1-1.2,0-1.7l-.1-.2c-.2-.3-.7-.4-1-.5-.4-.1-.8-.2-1.2-.1-.1,0-.4.1-.5.1-.9.2-2,.3-3-.2-.2-.1-.4-.2-.5-.3s-.3-.2-.5-.3c-.1.1-.1.3-.2.3-.4.4-.9.7-1.3,1-.6.3-1.2.6-1.9.8-.2.1-.5.1-.8.1h-.1c-.5.1-1,.5-1.4.8s-.8.6-1.1,1c-.2.1-.4.4-.6.5-.7.6-1,1.6-.6,2.4v.1c1,1.2,1.2,2.8.8,4.3-.1.4-.2.7-.4,1.1v.1c.4,0,.7.1,1.1.2,1,.2,1.8-.1,2.5-.9.1-.1.2-.3.3-.4.4-.5.6-1.1.6-1.7,0-.5-.1-1.1-.3-1.5-.2-.5-.5-1-.6-1.5-.3-.9-.6-2.6.4-3.3.1,0,.2-.1.3-.1.3-.1.6-.2.9-.3.4-.2.9-.5,1.2-.8.4-.3.8-.7,1.3-1,1.1-.6,2.5-.3,3.4.5.1-.1.2-.2.4-.2.3,0,.6.1.8.1.4.1.9-.1,1.3-.3.3-.2.6.3.3.5-.5.3-1.1.6-1.7.5-.2,0-.4-.1-.6-.1q-.1,0-.1.1c-.2.3-.1.7.1,1,.2.3.5.6.9.8l.1.1h.5c1.1,0,2.4.3,2.9,1.4.1.3.2.7.3,1,.1.6.4,1.1.9,1.5.7.5,1.8.8,2.7,1.3.2.1.4.2.6.4-.2-.2-.1-.7-.5-1.6h0Zm-16.9,2.1c-.2.6-1.1,1.4-1.5.7-.1-.3-.1-.6.2-.8.1-.1.3-.1.4-.3.2-.6.1-1.3-.1-2-.2-.5-.3-1.1-.3-1.6-.1-.5-.1-1.1-.1-1.6,0-.3.4-.3.4,0,.1.9.2,1.8.5,2.6.2.4.4.7.5,1.1.1.6.2,1.2,0,1.9Z"/>
          </g>
          <g>
            <path class="cls-9" d="m182.7,57.5c-.2.1-.5,0-.5-.3q0-.1-.1-.2c-.1-.3-.2-.7-.3-1s-.4-.7-.7-.8c-.1,0-.3-.1-.4-.2-.7-.4-1.4-.9-1.9-1.5-.7-.8-1.5-1.4-2.4-2-.3-.2-.7-.3-1.1-.5-.1,0-.2-.1-.3-.1-.2,0-.3-.2-.3-.4s.1-.3.3-.3l.3-.1c.9-.1,1.7.3,2.3.9.4.5.9.9,1.3,1.4.1.1.3.4.4.5.3.3.6.7.9.9.3.2.5.4.8.5.1,0,.2.1.3.1.8.4,1.2,1.5,1.5,2.3.2.5.1.8-.1.8h0Z"/>
            <path class="cls-9" d="m183.8,59.9c1-.7,1.3-2,1.2-3.2v-1c0-.4,0-.8-.2-1.2-.1-.2-.2-.4-.4-.5.1-.3.2-.5.2-.8.1-.9-.2-1.6-.3-2.5-.1-.4-.1-.8-.1-1.2-.1-.9-.4-1.8-1.2-2.3-.4-.2-.8-.3-1.2-.4-.7-.3-1.4-.7-1.9-1.2-.1-.2-.2-.3-.2-.5v-.1c-.1-1.3-1.2-2.4-2.5-2.4-1,.1-2-.1-3-.3-.4-.1-.7-.2-1-.3-.8-.4-1.6-.6-2.5-.7-.3,0-.7,0-1,.2-.4.2-.9.5-1.4.5h-1.2c-.8,0-1.6-.1-2.4,0-1.2,0-2.5.3-3.6.8-.4.2-.7.4-1.1.7-.3.3-.6.5-1,.6-.9.5-1.9.8-2.8.9-.6.1-1.3.3-1.7.8-.6.7-.8,1.6-.9,2.5l-.1.6c0,.2-.1.4-.1.6,0,.1-.1.4,0,.5,0,.1.1.2.2.3.1.1.2.2.2.3.1.2.2.3.2.5v.6c0,1,.3,2,.9,2.8.4.4.9.8,1.5.9.3.1.6.1.9.2.5.2,1.1.4,1.5.7.6.4,1.1.7,1.8.9,1.3.4,2.4.1,3.6.4.4.1.9.2,1.3.2.5,0,1.1-.1,1.6-.3,0,.1.1.1.1.2.4.5,1,1,1.7,1,.4.1.8,0,1.2-.1.1,0,.1.1.1.2.3.4.5.9.5,1.4v.2c0,.2,0,.5.1.7.4.8,1.3,1.3,2.1,1.6.8.2,1.7.5,2.6.6.1.9.8,1.8,1.7,1.9h.3c.2.4.4.9.3,1.3h0c0,.1,0,.2.1.2.3.8,1.1.9,1.7.4.5-.4.9-.9,1.5-1.2.1,0,.2-.1.3-.1h.2c.7-.5,1.4-1.3,1.1-2.1,0,0,0-.1.1-.2.1-.3.4-.5.7-.7.1-.1.3-.1.5-.2.9-.3,1-1.2.6-1.9-.3-.4-.5-.7-.8-.8h0Zm-27.6-5.7c-1.1-.4-1.6-1.5-1.7-2.6v-1c.1,0,.1.1.2.1,1.1.8,1.7,1.9,1.9,3.2,0,.1.1.3.1.4-.1.1-.3,0-.5-.1h0Zm7.1,2.1c-.9,0-1.8.1-2.6-.2-.6-.1-1.1-.4-1.6-.8-.5-.3-1.1-.6-1.7-.8h-.1c0-1-.1-1.9-.6-2.8-.2-.3-.4-.6-.7-.9.1-.2.2-.3.3-.5.3-.4.5-.7.9-.9-.2,1,0,2,.9,2.5.2.1.5.2.7.3.7.4,1.4.9,1.9,1.5,0,.1.1.1.1.2-.1.2.1.5.3.5.4.2.7-.2.7-.6-.2-1.1-2.3-2.3-3.4-2.6-.9-.3-1-1.4-.7-2.3h0c.3-.8.7-1.6,1.4-2,.2-.1.4-.2.7-.2.6,0,1.2.1,1.8.1s2.1.1,1.9-.9c-.2-.7-.9-.6-1.1-.1-.2,0-.5.1-.8.1h-1.8c-1.1,0-1.9,1-2.2,1.9-.1.2-.2.5-.2.7h-.4c-.1-.1-.1-.2-.1-.3s0-.2-.1-.3c-.1-.5.1-1,.4-1.3q.2-.2,0,0l.1-.1c.2-.3.6-.5.9-.7.4-.2.7-.4,1-.5.7-.3,1.5-.6,2.3-.8.6-.2,1.5-.2,2,.1.1.1.2.2.2.3.1.1.2.2.2.3.2.2.4.5.6.7.1.1.2.2.3.2-.1.1-.2.2-.3.2-.3.2-.6.5-.9.8-.3.3-.6.6-.8,1-.1.2-.2.5-.3.7h-.6c-.1,0-.2,0-.3-.1-.9-.5-1.9-.2-2.6.6-.2.4.3.7.6.3.2-.5.7-.8,1.3-.8.2,0,.4.1.5.2.3.1.7,0,1,0v.4c0,.4.1.8.2,1.1,0,.1.1.2.1.2,1.4,2,1.2,3.9.6,5.6h0Zm.2-12.1h.1c.4-.2.9-.2,1.3-.2.7,0,1.3.1,2,.2.8.1,1.6.3,2.4.2.3-.1.6-.2.9-.4.2-.2.5-.2.7-.2-.5.6-2.1,1.2-2.8,1.4-.3.1-.6.2-.9.1h-.2c-.4,0-.8.2-1.2.5-.1,0-.1.1-.1.1-.3-.1-.6-.3-.9-.6-.2-.2-.5-.4-.6-.7-.2-.2-.5-.3-.7-.4h0Zm3.9,11.4c-.7.8-1.5,1.1-2.5.9-.4-.1-.7-.2-1.1-.2v-.1c.2-.3.3-.7.4-1.1.4-1.5.2-3.2-.8-4.3v-.1c-.3-.8,0-1.8.6-2.4.2-.2.4-.4.6-.5.4-.3.8-.7,1.1-1,.4-.3.9-.7,1.4-.8h.1c.3,0,.5,0,.8-.1.7-.2,1.3-.4,1.9-.8.5-.3.9-.6,1.3-1,.1-.1.2-.2.2-.3.2.1.4.2.5.3s.4.2.5.3c.9.4,2,.4,3,.2.1,0,.4-.1.5-.1.4-.1.8,0,1.2.1.3.1.8.2,1,.5.1.1.1.2.1.2-.1.5-.2,1.1,0,1.7.2.6.7,1.1,1.3,1.3.1,0,.3.1.4.2.3.3.2.9.1,1.3-.3.7.6,1.1.9.5v-.1c.1-.9.1-2.1-.8-2.5-.2-.1-.5-.2-.7-.3,0,0-.1,0-.1-.1l-.1-.1c-.6-.5-.5-1.2-.4-1.9,0-.3-.1-.5-.2-.7-.5-.6-1.1-1-1.9-1.1h-.9c-.1,0-.4.1-.5.1-.9.2-1.9.2-2.7-.3-.7-.5-1.7-.8-2.5-.5-.1,0-.2.1-.3.2-.4.2-.8.3-1.3.3-.9-.1-1.9-.3-2.9-.4h-.8c-.2,0-.4,0-.7.1-.5.1-1.1.4-1.3.9h-.3c-.9,0-1.7.2-2.6.5-.8.3-1.5.6-2.2,1.1-.2.1-.5.3-.7.5-.2.1-.3.3-.4.5-.1.2-.2.4-.3.6-.1.6,0,1.3.1,1.9-.5.3-.9.8-1,1.4-.3-.2-.7-.4-1.1-.6,0-.1-.1-.1-.1-.2-.1-.2,0-.5,0-.7.2-1,.1-2.3.7-3.1.3-.4.8-.5,1.3-.6,1.1-.2,2.1-.5,3-1,.4-.2.8-.4,1.1-.7,1.5-1.2,3.6-1.3,5.4-1.2.9,0,1.7.1,2.5,0,.5-.1.9-.2,1.3-.4.1,0,.2-.1.3-.1.2-.1.4-.1.6-.1.7,0,1.4.2,2.1.6.4.2.8.4,1.3.5.8.2,1.7.4,2.5.4h.5c.2,0,.3,0,.5.1.6.2,1.2.6,1.5,1.2,0,.1.1.3.1.4,0,.3.1.6.3.9.5.7,1.1,1.2,1.9,1.7.3.2.6.3.9.4.9.4,1,1.3,1.2,2.3.1.6.4,1.2.6,1.8.4.9.3,1.4.2,1.7-.2-.1-.4-.2-.6-.4-.8-.5-1.9-.8-2.7-1.3-.5-.3-.8-.9-.9-1.5-.1-.3-.1-.7-.3-1-.5-1.1-1.8-1.4-2.9-1.4h-.5l-.1-.1c-.3-.2-.7-.5-.9-.8s-.3-.7-.1-1c0,0,0-.1.1-.1s.4.1.6.1c.6.1,1.2-.2,1.7-.5.3-.2,0-.6-.3-.5-.4.2-.9.4-1.3.3-.2-.1-.5-.2-.8-.1-.1,0-.3.1-.4.2-.9-.8-2.3-1.1-3.4-.5-.5.2-.9.6-1.3,1-.4.3-.8.6-1.2.8-.3.1-.6.2-.9.3-.1,0-.2.1-.3.1-1,.6-.7,2.3-.4,3.3.1.5.4,1,.6,1.5.2.5.3,1,.3,1.5,0,.6-.2,1.2-.6,1.7.2.1.1.2,0,.3h0Zm6.2,6c-.1,0-.3-.1-.4-.1-.4-.2-.8-.4-1.2-.7-.2-.2-.4-.3-.4-.5,0-.8-.3-1.5-.9-2l-.1-.1c.1,0,.1-.1.2-.1s.1-.1.2-.1c.1-.1.2-.3.3-.4.3-.8.4-1.6.3-2.5.4.4.8.8,1.3,1.2.9.7,1.8,1.3,2.9,1.8.8.4,1.4-.7.6-1.1-1-.5-1.9-1-2.8-1.5-.5-.3-.9-.6-1.3-.9-.3-.2-.6-.5-.8-.8-.1-.5-.3-1-.6-1.5-.2-.4-.4-.7-.4-1.1-.1-.8.1-1.7.6-2.3.3-.4.8-.7,1.3-.8.3-.1.4-.4.3-.6-.1-.3-.4-.4-.6-.3-.1,0-.2,0-.3.1-1.6.6-2.4,2.2-1.9,3.8.1.5.3,1,.4,1.5.5,1.2.8,2.5.8,3.8,0,.5-.1.9-.4,1.3l-.1.1c-.9.5-2,.5-2.8-.2-.1,0-.1-.1-.2-.2l-.1-.1c.4-.2.7-.6,1-.9.9-1.2,1.1-2.8.4-4.2-.1-.2-.2-.4-.3-.6-.4-.6-.7-1.3-.8-2.1-.1-.4-.1-1,.3-1.3.1,0,.1-.1.2-.1.5-.2,1-.4,1.4-.7.3-.2.5-.3.8-.5s.8-.4,1-.6c.7-.4,1.4-.4,2.2-.1.1.1.3.1.4.2.1,0,.2.1.3.1-.1.8.3,1.5.9,1.9-.2,0-.5.1-.7.1-.3.1-.5.1-.8.2-.2.1-.5.2-.7.4-1.2.8-1.3,2.3-.9,3.7.4,1.7,2.4,2.2,3.9,2.2h.5c.7,0,1.4,0,1.9.5.5.3.8.9.7,1.5,0,.2-.1.4-.1.6-.3,1-1,1.8-1.9,2.2-.3.2-.9.3-1.1.3-1.2-.1-2.2-1-2.7-2.1-.2-.3-.6-.5-.9-.3-.4.2-.4.6-.2,1,.4.7.9,1.3,1.6,1.8.7.5,1.5.7,2.3.7h.2c.5-.1.9-.3,1.4-.5.9-.5,1.5-1.3,1.9-2.2.4-1.1.5-2.5-.3-3.5-.6-.7-1.6-.9-2.5-.8h-.5c-1,0-2.5-.2-3-1.2-.3-.9-.6-2.1.1-2.9.2-.2.6-.4,1-.6.7-.2,1.7-.2,2.5-.2.5,0,1.1.1,1.6.4.3.2.4.4.5.7.2,1,.6,2,1.4,2.6.6.5,1.3.7,1.9,1,.5.2,1.2.6,1.6.9.2.2.3.3.3.6s0,.6.1,1v1c0,.8-.3,1.8-1.1,2.2h0c-.4.1-.7.2-1,.4-.2.2-.5.4-.6.6-.1.1-.1.2-.1.2-.2.4-.6.7-.9,1-.1.1-.2.2-.4.3-2.4.5-4.7,0-6.7-.6h0Zm10,0c-.6.2-1.2.4-1.6,1-.2.2-.3.5-.4.8v.3c.2.4-.3.9-.6,1.1,0,0-.1,0-.1.1,0,0-.1,0-.1.1-.6.3-1,.8-1.5,1.2-.1.1-.2.2-.3.3-.1.1-.3.2-.4.2s-.1-.2-.2-.2c0-.5-.2-1-.5-1.4.6-.1,1.3-.2,1.8-.5.2-.1.1-.4-.1-.4h-2.4c-.6,0-1-.4-1.3-.9,1.4.1,2.9,0,4.1-.6.2-.1.4-.2.5-.4.4-.4.8-.7,1.1-1.3,0-.1.1-.2.1-.2.2-.3.6-.5,1-.5.1.1.2.2.2.2.2.3.5.7.5,1,.4.1.3.1.2.1h0Z"/>
            <path class="cls-9" d="m167,54c-.2.6-1.1,1.4-1.5.7-.1-.3-.1-.6.2-.8.1-.1.3-.1.4-.3.2-.6.1-1.3-.1-2-.2-.5-.3-1.1-.3-1.6-.1-.5-.1-1.1-.1-1.6,0-.3.4-.3.4,0,.1.9.2,1.8.5,2.6.2.4.4.7.5,1.1.1.6.2,1.2,0,1.9Z"/>
          </g>
          <g>
            <path class="cls-10" d="m157.4,41.4s0-3.2-2.2-4.2c0,0-.7-.4-1.2.4s.7,1.3.7,1.3c0,0,2.4,1.1,2.7,2.5h0Z"/>
            <path class="cls-10" d="m164.9,39.2s-1.8-1.9-1.4-4c0,0,0-.4.6-.4s.7.2.8.9-.5,2.4,0,3.5h0Z"/>
            <path class="cls-10" d="m173.8,39.6s2.1-2.9,1.6-3.8-1.4-.5-1.4,0,.3,3-.2,3.8h0Z"/>
            <path class="cls-10" d="m182.2,42.5s2.6-3.5,3.6-3.3.8,1.3.3,1.5-3.4,1.3-3.9,1.8h0Z"/>
            <path class="cls-10" d="m186.5,49.7s2.9-2,4.7-.7-1,1.8-2,1-2.7-.3-2.7-.3Z"/>
          </g>
        </g>
        <g>
          <path class="cls-13" d="m109.8,89.1h-.4l-.8,1.8v1.3h1v-1.4h-.4l.6-1.7Zm-2,0h-.4l-.8,1.8v1.3h1v-1.4h-.4c.1,0,.6-1.7.6-1.7Z"/>
          <path class="cls-13" d="m116.4,89.1h-4.1v9.6h.8v-3h3.4c1.8,0,3.3-1.1,3.3-3.3s-1.6-3.3-3.4-3.3h0Zm0,5.9h-3.4v-5.2h3.4c1.4,0,2.5.9,2.5,2.6s-1.1,2.6-2.5,2.6h0Z"/>
          <path class="cls-13" d="m123.9,94.7c-1-.2-1.9-.5-1.9-1.4,0-.7.7-1.1,1.8-1.1.6,0,1.4.1,1.9.5l.4-.6c-.7-.4-1.6-.6-2.3-.6-1.6,0-2.6.7-2.6,1.9,0,1.4,1.2,1.8,2.6,2.1.9.2,1.9.5,1.9,1.4,0,.8-.6,1.3-1.9,1.3-.9,0-1.7-.2-2.3-.7l-.4.6c.7.5,1.7.8,2.7.8,1.8,0,2.7-.8,2.7-2,0-1.4-1.1-1.8-2.6-2.2Z"/>
          <path class="cls-13" d="m128.3,91.7v7.1h.7v-7.1h-.7Zm-.2-2.6v1.2h1v-1.2h-1Z"/>
          <path class="cls-13" d="m135.2,96.3l-1-1.5,3.2-3.1h-1.1l-4.3,4.3v-7l-.7.2v9.6h.7v-1.9l1.6-1.5,1,1.4c1,1.5,1.7,1.9,2.9,2.1v-.7c-1.1-.3-1.6-.8-2.3-1.9h0Z"/>
          <path class="cls-13" d="m141.9,91.5c-2.2,0-3.5,1.5-3.5,3.7s1.2,3.7,3.5,3.7,3.5-1.5,3.5-3.7-1.3-3.7-3.5-3.7Zm0,6.7c-1.8,0-2.7-1.2-2.7-3s.9-3,2.7-3,2.7,1.2,2.7,3-1,3-2.7,3Z"/>
          <path class="cls-13" d="m148.8,98.2c-.6,0-.8-.4-.8-1.2v-8l-.7.2v7.8c0,1.6.6,1.9,1.5,1.9.4,0,.7-.1.8-.2v-.7c-.2.1-.5.2-.8.2Z"/>
          <path class="cls-13" d="m154,91.5c-2.2,0-3.5,1.5-3.5,3.7s1.2,3.7,3.5,3.7,3.5-1.5,3.5-3.7-1.3-3.7-3.5-3.7Zm0,6.7c-1.8,0-2.7-1.2-2.7-3s.9-3,2.7-3,2.7,1.2,2.7,3-.9,3-2.7,3Z"/>
          <path class="cls-13" d="m159.2,89.1v1.2h1v-1.2h-1Zm.2,2.6v8c0,.8-.2,1.1-.8,1.1h-.4v.7s.2.1.4.1c1.1,0,1.5-.7,1.5-1.8v-8c0-.1-.7-.1-.7-.1Z"/>
          <path class="cls-13" d="m162.4,91.7v7.1h.7v-7.1h-.7Zm-.1-2.6v1.2h1v-1.2h-1Z"/>
          <path class="cls-13" d="m173.4,86.8v1.2h1v-1.2h-1Zm-2.5,0v1.2h1v-1.2h-1Zm1.8,2.1c-3,0-4.8,2-4.8,5s1.8,5,4.8,5,4.8-2,4.8-5-1.8-5-4.8-5Zm0,9.3c-2.5,0-4-1.7-4-4.2s1.4-4.2,4-4.2,4,1.7,4,4.2-1.5,4.2-4,4.2Z"/>
          <path class="cls-13" d="m183.7,88.7c-.1.8-.5,1.2-1.4,1.2s-1.3-.4-1.4-1.2h-.7c.1,1.1.9,1.9,2.1,1.9s2-.8,2.1-1.9h-.7Zm-.9,8.3h-1.2c-1.7,0-1.9-.4-1.9-.8s.2-.7.5-.8c.5.3,1.2.5,2.1.5,2.1,0,3-.9,3-2.2,0-.8-.3-1.4-1.1-1.8.1-.6.4-.8,1.1-.8v-.9c-1,0-1.5.5-1.7,1.5-.4-.1-.8-.2-1.3-.2-2.1,0-3,.9-3,2.2,0,.5.1.9.4,1.3-.5.2-.9.7-.9,1.2,0,.6.3,1,.7,1.2-.6.4-.8,1.1-.8,1.8,0,1.4,1.1,2.3,3.6,2.3s3.7-.9,3.7-2.3c.1-1.3-.8-2.2-3.2-2.2h0Zm-.4-4.8c1.7,0,2.3.6,2.3,1.5s-.6,1.5-2.3,1.5-2.3-.6-2.3-1.5.6-1.5,2.3-1.5Zm0,8.6c-2.1,0-2.9-.7-2.9-1.7,0-.7.2-1.3.7-1.6.4.1.9.2,1.4.2h1.5c1.6,0,2.2.7,2.2,1.5,0,.9-.8,1.6-2.9,1.6h0Z"/>
          <path class="cls-13" d="m190.9,91.5c-1.1,0-2,.4-2.5,1.6l-.1-1.5h-.7v7.1h.7v-3.5c0-1.8.9-2.9,2.5-2.9.2,0,.5,0,.6.1v-.8c0-.1-.3-.1-.5-.1h0Z"/>
          <path class="cls-13" d="m199.3,95.2c0-2.2-1.3-3.7-3.4-3.7-1,0-1.7.3-2.3.8-.7.7-1.1,1.7-1.1,2.9,0,.7.1,1.4.4,1.9.5,1.1,1.6,1.8,3.2,1.8,1,0,2.1-.3,2.9-.8l-.3-.7c-.8.6-1.8.8-2.6.8-1.9,0-2.7-1-2.8-2.7h6.1c0-.1,0-.2-.1-.3h0Zm-6-.4c.2-1.5,1.1-2.6,2.6-2.6s2.5,1,2.6,2.6h-5.2Z"/>
          <path class="cls-13" d="m204.8,91.5c-1.3,0-2.3.6-2.9,1.7l-.1-1.5h-.7v7.1h.7v-3.5c0-1.8,1-3,2.7-3,1.5,0,2.4.8,2.4,2.5v4.1h.7v-4.1c.2-2.3-.9-3.3-2.8-3.3h0Z"/>
          <path class="cls-13" d="m215.5,97.4c-.7.5-1.4.8-2.2.8-1.8,0-2.8-1.2-2.8-3s1-3,2.8-3c.8,0,1.4.3,2.1.7l.4-.6c-.6-.5-1.4-.8-2.6-.8-2.2,0-3.5,1.5-3.5,3.7s1.3,3.7,3.4,3.7c1.4,0,2.1-.4,2.8-.9l-.4-.6h0Z"/>
          <path class="cls-13" d="m217.5,91.7v7.1h.7v-7.1h-.7Zm-.1-2.6v1.2h1v-1.2h-1Z"/>
          <path class="cls-13" d="m222.1,98.2c-.6,0-.8-.4-.8-1.2v-8l-.7.2v7.8c0,1.6.6,1.9,1.5,1.9.4,0,.7-.1.8-.2v-.7c-.2.1-.5.2-.8.2Z"/>
          <path class="cls-13" d="m230.6,95.2c0-2.2-1.3-3.7-3.4-3.7s-3.4,1.5-3.4,3.7,1.2,3.7,3.6,3.7c1,0,2.1-.3,2.9-.8l-.3-.7c-.8.6-1.8.8-2.6.8-1.9,0-2.7-1-2.9-2.7h6.1c0-.1,0-.2,0-.3h0Zm-6.1-.4c.2-1.5,1.1-2.6,2.6-2.6s2.5,1,2.6,2.6h-5.2Z"/>
          <path class="cls-13" d="m235.7,91.5c-.3,0-.7,0-.9.1-.7.2-1.2.7-1.5,1.5l-.1-1.5h-.7v7.1h.7v-3.5c0-1.4.6-2.5,1.7-2.8.2-.1.5-.1.8-.1.2,0,.5,0,.6.1v-.8c-.1-.1-.4-.1-.6-.1h0Z"/>
          <path class="cls-13" d="m238,91.7v7.1h.7v-7.1h-.7Zm-.2-2.6v1.2h1v-1.2h-1Z"/>
          <path class="cls-13" d="m244.6,91.5c-1.3,0-2.3.6-2.9,1.7l-.1-1.5h-.6v7.1h.7v-3.5c0-1.8,1-3,2.8-3,1.5,0,2.4.8,2.4,2.5v4.1h.7v-4.1c0-2.3-1.2-3.3-3-3.3h0Z"/>
          <path class="cls-13" d="m256.4,96.7v-7.7l-.7.2v2.9c-.7-.5-1.5-.6-2.5-.6-2.3,0-3.7,1.5-3.7,3.7s1.4,3.7,3.4,3.7c1.4,0,2.4-.6,2.9-1.5,0,.6.2,1,.3,1.4h.6c-.2-.7-.3-1.2-.3-2.1h0Zm-.7-1.5c0,1.7-.9,3-2.8,3-1.6,0-2.6-1.1-2.6-3s1.2-3,3-3c1,0,1.8.2,2.4.7v2.3h0Z"/>
          <path class="cls-13" d="m265.2,95.2c0-2.2-1.3-3.7-3.4-3.7s-3.5,1.5-3.5,3.7,1.2,3.7,3.6,3.7c1,0,2.1-.3,2.9-.8l-.3-.7c-.8.6-1.8.8-2.6.8-1.9,0-2.7-1-2.9-2.7h6.1c.1-.1.1-.2.1-.3h0Zm-6-.4c.2-1.5,1.1-2.6,2.6-2.6s2.5,1,2.6,2.6h-5.2Z"/>
          <path class="cls-13" d="m270.7,91.5c-1.3,0-2.3.6-2.9,1.7v-1.5h-.7v7.1h.7v-3.5c0-1.8,1-3,2.8-3,1.5,0,2.4.8,2.4,2.5v4.1h.7v-4.1c0-2.3-1.2-3.3-3-3.3h0Z"/>
          <path class="cls-13" d="m285.3,89.1l-2.6,4.7c-.2.4-.4.7-.6,1.1-.2-.4-.4-.7-.6-1.1l-2.6-4.7h-.9l3.8,6.4v3.3h.8v-3.3l3.8-6.4h-1.1Z"/>
          <path class="cls-13" d="m293.9,98.2c-.6,0-.8-.4-.8-1.2v-5.3h-.7v1c-.7-.7-1.6-1.2-2.7-1.2-2.1,0-3.5,1.4-3.5,3.7s1.4,3.7,3.5,3.7c1.3,0,2.2-.7,2.7-1.5.1,1.2.7,1.5,1.5,1.5.4,0,.7-.1.8-.2v-.7c-.2.1-.5.2-.8.2h0Zm-1.5-3c0,1.7-.9,3-2.7,3-1.6,0-2.7-1.1-2.7-3s1.1-3,2.7-3c1.3,0,2.1.5,2.7,1.4v1.6h0Z"/>
          <path class="cls-13" d="m297.7,98h-1c.2-.9,1.4-1.9,2.3-2.7,1.2-1,2.5-2.2,2.8-3.5v-.2h-5.7v.7h4.8c-.5.9-1.2,1.6-2.3,2.5-1.3,1-2.5,2.2-2.8,3.6l-.1.3h6.3v-.7h-4.3Z"/>
          <path class="cls-13" d="m303.7,91.7v7.1h.7v-7.1h-.7Z"/>
          <path class="cls-13" d="m308.3,98.2c-.6,0-.8-.4-.8-1.2v-8l-.7.2v7.8c0,1.6.6,1.9,1.5,1.9.4,0,.7-.1.8-.2v-.7c-.2.1-.5.2-.8.2Z"/>
          <path class="cls-13" d="m317.7,98.2c-.6,0-.8-.4-.8-1.2v-5.3h-.7l-.1,1c-.7-.7-1.6-1.2-2.7-1.2-2.1,0-3.5,1.4-3.5,3.7s1.4,3.7,3.5,3.7c.8,0,1.5-.3,2-.7.3-.2.6-.6.8-.9.1,1.2.7,1.5,1.5,1.5.4,0,.7-.1.8-.2v-.7c-.2.2-.5.3-.8.3h0Zm-1.6-2.2c0,.3-.1.5-.2.8h0c-.4.9-1.2,1.4-2.4,1.4-1.6,0-2.7-1.1-2.7-3s1.1-3,2.7-3c1.3,0,2.2.5,2.7,1.4v1.6c-.1.3-.1.5-.1.8h0Z"/>
          <path class="cls-13" d="m323.1,91.5c-1.1,0-2,.4-2.5,1.6v-1.5h-.7v7.1h.7v-3.5c0-1.8.9-2.9,2.5-2.9.2,0,.5,0,.6.1v-.8c-.1-.1-.3-.1-.6-.1h0Z"/>
          <path class="cls-13" d="m327.6,89.1v1.4h.4l-.6,1.7h.4l.8-1.8v-1.3s-1,0-1,0Zm-2,0v1.4h.4l-.6,1.7h.4l.8-1.8v-1.3s-1,0-1,0Z"/>
        </g>
        <g>
          <path class="cls-13" d="m127.8,63h-2.1l-8,21.2h2.4l2.3-6.6h8l2.4,6.6h2.6l-7.6-21.2h0Zm-4.6,12.6l3.3-9.3h.1l3.2,9.3h-6.6Z"/>
          <path class="cls-13" d="m153.3,63h-2.9l-9.6,10.1v-10.1h-2.4v21.2h2.4v-10.9l9.3,10.9h3.1l-9.6-11.2,9.7-10Z"/>
          <path class="cls-13" d="m156.1,63v21.2h2.4v-21.2c.1,0-2.4,0-2.4,0Z"/>
          <path class="cls-13" d="m166,82.1v-19.1h-2.4v21.2h11.4l.3-2.1h-9.3Z"/>
          <path class="cls-13" d="m197.9,63.5c-1.2-.4-2.5-.5-3.9-.5h-6.5v21.2h7.2c6.5-.3,10.1-4.5,10.1-10.7.1-5.3-2.8-8.7-6.9-10h0Zm-2.7,18.5c-.8.1-1.6.2-2.6.2h-2.5v-17.2h3.1c1.6,0,3.1.2,4.4.8,3,1.2,4.7,3.8,4.7,7.9,0,4.5-1.9,7.5-7.1,8.3h0Z"/>
          <path class="cls-13" d="m211.5,82.1v-7.8h7.3v-2.1h-7.3v-7.2h8.5l.3-2h-11.2v21.2h11.2l.3-2.1h-9.1Z"/>
          <path class="cls-13" d="m235.3,65l.3-2h-11.1v21.2h2.4v-9.6h7.3v-2.1h-7.2v-7.5h8.3Z"/>
          <path class="cls-13" d="m237.1,63v2h6.3v19.2h2.4v-19.2h6l.3-2h-15Z"/>
          <path class="cls-13" d="m257.6,82.1v-7.8h7.3v-2.1h-7.3v-7.2h8.5l.3-2h-11.2v21.2h11.2l.3-2.1h-9.1Z"/>
          <path class="cls-13" d="m282.5,78.8c-1-1.9-2.2-4.2-4.8-4.9v-.1c3.3-.6,4.6-3.2,4.6-5.3,0-3.8-3-5.5-6.6-5.5h-5.1v21.2h2.4v-9.6h1.2c2.6,0,4.2,1.3,5.9,4.5l2.5,5.1h2.7l-2.8-5.4h0Zm-8.5-6.3h-1v-7.5h1c4.3,0,5.6,1.2,5.6,3.6,0,2.8-2,3.9-5.6,3.9h0Z"/>
          <path class="cls-13" d="m287.8,63v21.2h2.5v-21.2h-2.5Zm1.3-5.4c-1,0-1.8.8-1.8,1.7s.8,1.8,1.8,1.8,1.7-.8,1.7-1.8-.8-1.7-1.7-1.7Z"/>
          <path class="cls-13" d="m313.9,63l-7.5,17.2-7.5-17.2h-3.6v21.2h2.3v-18.2h.1l8,18.2h1.3l8-18.2h.1v18.2h2.5v-21.2h-3.7Z"/>
        </g>
      </g>
      <g id="lonca-s">
        <g>
          <path class="cls-4" d="m57.6,456.7v.3h-.4c-.3,0-.3.3-.3.3v1.7c0,2.4-2.7,2.3-2.7,2.3v1.3c.1.6.5.6.5.6h.5v.3h-2.9v-.3h.5s.5,0,.5-.6v-1.3s-2.7.1-2.7-2.3v-1.7s0-.3-.3-.3h-.4v-.3h.7s1,0,1,1.4v1.6s0,1.4,1.6,1.4v-3.5s0-.6-.9-.5v-.3h2.7v.3c-.9-.1-.9.5-.9.5v3.5c1.6,0,1.6-1.4,1.6-1.4v-1.6c0-1.5,1-1.4,1-1.4h.9Z"/>
          <path class="cls-4" d="m66.3,465.8s-9.5,5.2-9.7,16.2h-2v-16.5c2.8-.5,5-2.9,5-5.8,0-3.2-2.6-5.9-5.9-5.9s-5.9,2.6-5.9,5.9c0,2.9,2.2,5.4,5,5.8v16.5h-2c-.2-11-9.7-16.2-9.7-16.2l4.6-22.8h15.9l4.7,22.8h0Z"/>
        </g>
        <g>
          <g>
            <path class="cls-4" d="m53.8,494.5c.3-.2.6-.6.6-1.4v-.9s-.2-1.3-1.2-1.5h-1.9v8.5h1v-3.8h.8s.4.1.5.8v3h1v-3.3c-.1,0-.2-1-.8-1.4h0Zm-.9-.4h-.6v-2.4h.6s.5.2.5,1.1-.5,1.3-.5,1.3Z"/>
            <path class="cls-4" d="m66.1,494.5c.3-.2.6-.6.6-1.4v-.9s-.2-1.3-1.2-1.5h-1.9v8.5h1v-3.8h.8s.4.1.4.8v3h1v-3.3s-.1-1-.7-1.4h0Zm-1-.4h-.6v-2.4h.6s.5.2.5,1.1-.5,1.3-.5,1.3Z"/>
            <polygon class="cls-4" points="58.2 498 58.2 499.2 55.5 499.2 55.5 490.7 56.4 490.7 56.4 498 58.2 498"/>
            <polygon class="cls-4" points="45.9 492 44 497.9 46 497.9 46 499.2 42.9 499.2 42.9 497.9 42.9 497.9 44.8 492 42.9 492 42.9 490.7 46 490.7 46 491.8 45.9 492"/>
            <polygon class="cls-4" points="37.5 490.7 36.2 494.9 36.2 499.2 35.2 499.2 35.2 494.8 33.9 490.7 35 490.7 35.7 493 36.5 490.7 37.5 490.7"/>
            <path class="cls-4" d="m40.8,490.7h-1.1l-1.2,8.5h1l.2-1.2h1.2l.2,1.2h1c-.1,0-1.4-8.5-1.3-8.5Zm-1,6l.4-2.8.4,2.8h-.8Z"/>
            <path class="cls-4" d="m49.2,490.7h-1.1l-1.2,8.5h1l.1-1.2h1.2l.2,1.2h1l-1.2-8.5Zm-1,6l.4-2.8.4,2.8h-.8Z"/>
            <path class="cls-4" d="m61.4,490.7h-1.1l-1.2,8.5h1l.2-1.2h1.2l.2,1.2h1c-.1,0-1.3-8.5-1.3-8.5Zm-.9,6l.4-2.8.4,2.8h-.8Z"/>
          </g>
          <path class="cls-4" d="m76.8,490.8c-.6-.3-1.2,0-1.2,0,0,0-1,.4-1,1.9v4.4c0,1.6,1,2,1,2,0,0,.6.3,1.2,0,1-.5,1-1.9,1-2h0v-4.4c0-.2-.1-1.4-1-1.9h0Zm0,6.5c0,.4-.3.7-.3.7,0,0-.2.2-.6,0-.3-.2-.3-.7-.3-.7v-4.9s0-.4.3-.6.6,0,.6,0c0,0,.3.2.3.6v4.9Z"/>
          <path class="cls-4" d="m94.6,496.6c0,.1.1.3.1.6s-.1.6-.1.6c0,0-.3,1.4-1.3,1.4h-.8s-.9-.2-1.1-1.4c-.1-.3,0-1.4,0-1.4h1s-.3,1.6.6,1.6c.7,0,.7-1,.6-1.3-.1-.4-.4-.8-1.2-1.7s-1-1.4-1.1-1.9v-1.1c.2-1,.7-1.2,1.1-1.3h.8c.9,0,1.1,1.1,1.2,1.3v.9h-.9s0-1.3-.6-1.3c-.8,0-.8,1.1-.7,1.6.1.5.7,1.1,1.2,1.6.8.8,1.1,1.3,1.2,1.8h0Z"/>
          <path class="cls-4" d="m86,492.7h0v.5h-1v-.8c0-.4-.3-.6-.3-.6,0,0-.2-.2-.6,0s-.3.6-.3.6v4.9c0,.2.1.4.3.6.3.2.6,0,.6,0,0,0,.3-.3.3-.7v-.8h1v.5s0,1.5-1,2.1h0c-.6.3-1.1.1-1.2,0h0s-.8-.4-1-1.7v-4.6c0-1.5,1-1.9,1-1.9,0,0,.6-.3,1.2,0,1,.5,1,1.8,1,1.9h0Z"/>
          <polygon class="cls-4" points="73.6 498 73.6 499.2 70.9 499.2 70.9 490.7 71.9 490.7 71.9 498 73.6 498"/>
          <polygon class="cls-4" points="81.9 490.7 81.9 499.2 81 499.2 80.9 499 79.7 494.5 79.7 499.2 78.7 499.2 78.7 490.7 79.7 490.7 79.7 490.7 80.9 495.2 80.9 490.7 81.9 490.7"/>
          <rect class="cls-4" x="95.6" y="490.7" width="1" height="8.5"/>
          <path class="cls-4" d="m89.2,490.7h-1.1l-1.2,8.5h1l.2-1.2h1.2l.2,1.2h1l-1.3-8.5Zm-.9,6l.4-2.8.4,2.8h-.8Z"/>
          <g>
            <polygon class="cls-4" points="14.1 490.6 14.1 491.6 12.9 491.6 12.9 499.1 11.9 499.1 11.9 491.6 10.8 491.6 10.8 490.6 14.1 490.6"/>
            <path class="cls-4" d="m21.2,490.8c-.6-.3-1.2,0-1.2,0,0,0-1,.4-1,1.9v4.4c0,1.6,1,2,1,2,0,0,.6.3,1.2,0,1-.5,1-1.9,1-2v-4.4c0-.2,0-1.5-1-1.9h0Zm0,6.4c0,.4-.3.7-.3.7,0,0-.2.2-.6,0-.3-.2-.3-.7-.3-.7v-4.9s0-.4.3-.6.6,0,.6,0c0,0,.3.2.3.6v4.9Z"/>
            <path class="cls-4" d="m17.2,490.6h-2.2v8.5h1v-3.8h1.2s.9-.3.9-1.9v-1.2s0-1.3-.9-1.6h0Zm-.4,3.8h-.8v-2.7h.8s.4.3.4,1.4-.4,1.3-.4,1.3h0Z"/>
            <path class="cls-4" d="m26.3,492.7h0v.5h-1v-.8c0-.4-.3-.6-.3-.6,0,0-.2-.2-.6,0s-.3.6-.3.6v4.9c0,.2.1.4.3.6.3.2.6,0,.6,0,0,0,.3-.3.3-.7v-.8h1v.5s0,1.5-1,2.1h0s-.1.1-.2.1l-.6,1.4-.9-.6.4-.9c-.2-.1-.8-.5-.9-1.7v-4.6c0-1.5,1-1.9,1-1.9,0,0,.6-.3,1.2,0,1,.5,1,1.8,1,1.9h0Z"/>
            <path class="cls-4" d="m30.5,492.7h0v.5h-1v-.8c0-.4-.3-.7-.3-.7,0,0-.2-.2-.6,0s-.3.7-.3.7v5.1c0,.1.1.4.3.5.1.1.2.1.3.1h.1c.1,0,.2-.1.2-.1,0,0,.3-.2.3-.6v-.7h0v-.6h-.5v-1.1h1.5v2.2h0c0,.1,0,1.4-1,1.9h0c-.6.3-1.1,0-1.2,0h0s-.9-.3-1-1.5v-4.8c0-1.5,1-2,1-2,0,0,.6-.3,1.2,0,.9.5,1,1.8,1,1.9Z"/>
            <rect class="cls-4" x="19.6" y="489.4" width=".8" height="1"/>
            <rect class="cls-4" x="20.9" y="489.4" width=".8" height="1"/>
          </g>
        </g>
      </g>
      <g id="tpg-s">
        <g>
          <path class="cls-4" d="m379.6,494.6v1.7h-2.6s-3.2,0-3.4-3.3v-6.3h-3.4v-1.7h9v1.7h-3.8v5.6c0,2.4,2.3,2.3,2.3,2.3h1.9Z"/>
          <path class="cls-4" d="m385.2,485h-5v15h1.8v-3.8h3.2c3,0,5.3-2.5,5.3-5.6s-2.4-5.6-5.3-5.6Zm0,9.6h-3.2v-7.7h3.2c1.9.2,3.4,1.8,3.4,3.9s-1.5,3.6-3.4,3.8h0Z"/>
          <path class="cls-4" d="m421.1,485c-3,0-5.3,2.5-5.3,5.6s2.4,5.6,5.3,5.6h3.2c-.1,2.2-2.3,2.1-2.3,2.1h-1.9v1.7h2.6s.8,0,1.7-.4c.8-.4,1.6-1.2,1.8-2.8v-11.8h-5.1Zm3.2,9.6h-3.2c-1.9-.2-3.4-1.8-3.4-3.9s1.5-3.7,3.4-3.9h3.2v7.8h0Z"/>
          <path class="cls-4" d="m397.5,485c-3.2,0-5.9,2.5-5.9,5.6s2.6,5.6,5.9,5.6,5.9-2.5,5.9-5.6-2.6-5.6-5.9-5.6Zm0,9.4c-2.2,0-4-1.7-4-3.8s1.8-3.8,4-3.8,4,1.7,4,3.8-1.8,3.8-4,3.8Z"/>
          <path class="cls-4" d="m410.5,494.4c-2.1,0-3.8-1.7-3.8-3.8s1.7-3.8,3.8-3.8c1.3,0,2.4.6,3.1,1.6l1.5-1c-1-1.4-2.7-2.3-4.5-2.3-3.1,0-5.6,2.5-5.6,5.6s2.5,5.6,5.6,5.6c1.8,0,3.5-.9,4.5-2.3l-1.5-1c-.8.9-1.9,1.4-3.1,1.4h0Z"/>
          <ellipse class="cls-4" cx="394.9" cy="483.2" rx=".9" ry="1"/>
          <ellipse class="cls-4" cx="399.8" cy="483.2" rx=".9" ry="1"/>
          <ellipse class="cls-4" cx="414.6" cy="497.7" rx=".9" ry="1"/>
          <g>
            <path class="cls-4" d="m383,497.4v.1h.4v1.1h.2v-1.1h.4v-.1h-1Z"/>
            <path class="cls-4" d="m384.5,497.4v.2h.1v-.2h-.1Zm-.3,0v.2h.1v-.2h-.1Zm.5.3v.6q-.1.1-.2.1h-.1v-.7h-.1v.6c0,.2.1.3.3.3.1,0,.2,0,.2-.1v.1h.1v-.9h-.2Z"/>
            <path class="cls-4" d="m385.4,497.7q-.1,0-.2.1v-.1h-.2v.9h.1v-.6q.1-.1.2-.1h.1v-.2c.1,0,0,0,0,0h0Z"/>
            <path class="cls-4" d="m385.9,498l.3-.3h-.2l-.3.4v-.7h-.1v1.2h.1v-.4l.1-.1.3.5h.2l-.4-.6Z"/>
            <path class="cls-4" d="m387.7,497.5c0-.1-.1-.1-.2-.1h-.6v1.2h.2v-.5h.3c.1,0,.2,0,.3-.1.1-.1.1-.2.1-.3s0-.1-.1-.2h0Zm-.2.4s-.1.1-.2.1h-.3v-.4h.5q.1,0,.1.1v.1s0,.1-.1.1h0Z"/>
            <path class="cls-4" d="m388.5,498.1s-.1-.1-.2-.1-.2,0-.2-.1v-.2h.1c.1,0,.2,0,.2.1h.1c0-.2-.1-.2-.3-.2-.1,0-.2,0-.2.1-.1,0-.1.1-.1.2s0,.1.1.2c0,0,.1.1.2.1s.2,0,.2.1v.2h-.1c-.1,0-.2-.1-.2-.2h-.1c0,.2.1.3.4.3.1,0,.2,0,.2-.1.1,0,.1-.1.1-.2q-.1-.1-.2-.2h0Z"/>
            <path class="cls-4" d="m388.8,497.7v.9h.1v-.9h-.1Zm0-.3v.2h.1v-.2h-.1Z"/>
            <path class="cls-4" d="m389.5,498l.3-.3h-.2l-.3.4v-.7h-.1v1.2h.1v-.4l.1-.1.3.5h.2l-.4-.6Z"/>
            <path class="cls-4" d="m390.6,497.8c-.1-.1-.2-.1-.3-.1s-.2,0-.3.1-.1.2-.1.4c0,.1,0,.3.1.3.1.1.2.1.3.1s.2,0,.3-.1.1-.2.1-.3c0-.2,0-.3-.1-.4Zm-.1.6c0,.1-.1.1-.2.1s-.1,0-.2-.1c0-.1-.1-.1-.1-.2s0-.2.1-.3c0-.1.1-.1.2-.1s.1,0,.2.1c0,.1.1.1.1.3q0,.1-.1.2Z"/>
            <path class="cls-4" d="m390.9,497.4v1.2h.1v-1.2h-.1Z"/>
            <path class="cls-4" d="m391.9,497.8c-.1-.1-.2-.1-.3-.1s-.2,0-.3.1c-.1.1-.1.2-.1.4,0,.1,0,.3.1.3.1.1.2.1.3.1s.2,0,.3-.1c.1-.1.1-.2.1-.3,0-.2,0-.3-.1-.4Zm-.1.6c0,.1-.1.1-.2.1s-.1,0-.2-.1c0-.1-.1-.1-.1-.2s0-.2.1-.3c0-.1.1-.1.2-.1s.1,0,.2.1c0,.1.1.1.1.3,0,.1-.1.1-.1.2Z"/>
            <path class="cls-4" d="m392.2,497.4v.2h.2v-.2h-.2Zm0,.3v1h-.2v.1h.1q.1,0,.2-.1t.1-.2v-.9l-.2.1h0Z"/>
            <path class="cls-4" d="m392.6,497.7v.9h.1v-.9h-.1Zm0-.3v.2h.1v-.2h-.1Z"/>
            <path class="cls-4" d="m394,497.1v.2h.1v-.2h-.1Zm-.3,0v.2h.1v-.2h-.1Zm.6.4c-.1-.1-.2-.2-.4-.2s-.3.1-.4.2-.2.3-.2.5.1.3.2.5c.1.1.2.2.4.2s.3-.1.4-.2.2-.3.2-.5-.1-.4-.2-.5Zm-.1.8c-.1.1-.2.1-.3.1s-.2,0-.3-.1c-.1-.1-.1-.2-.1-.4s0-.3.1-.4.2-.1.3-.1.2,0,.3.1c.1.1.1.2.1.4,0,.2,0,.3-.1.4Z"/>
            <path class="cls-4" d="m395.2,497.4c0,.1-.1.1-.1.1,0,0-.1,0-.1-.1h-.1q0,.1.1.2t.2.1.2-.1s.1-.1.1-.2h-.3Zm0,.3h-.2c-.1,0-.2,0-.2.1-.1.1-.1.2-.1.3s0,.2.1.3q.1.1.2.1c.1,0,.2,0,.2-.1h0c0,.1,0,.2-.1.2,0,0-.1.1-.2.1s-.2,0-.2-.1h-.2q0,.1.1.2c.1,0,.1.1.3.1s.4-.1.4-.4v-.8h-.1Zm0,.6c-.1.1-.1.2-.2.2s-.1,0-.2-.1v-.2c0-.1,0-.2.1-.3s.1-.1.1-.1c.1,0,.2,0,.2.1v.4Z"/>
            <path class="cls-4" d="m396,497.7c-.1,0-.2,0-.2.1v-.1h-.1v.9h.1v-.6q.1-.1.2-.1h.1l-.1-.2h0Z"/>
            <path class="cls-4" d="m396.9,498.1c0-.1,0-.3-.1-.4s-.2-.1-.3-.1-.2,0-.3.1c-.1.1-.1.2-.1.4,0,.1,0,.3.1.3.1.1.2.1.3.1s.2,0,.2-.1c.1,0,.1-.1.1-.2h-.2q0,.1-.1.1h-.1q-.1,0-.2-.1s-.1-.1-.1-.2l.8.1h0Zm-.7,0q0-.1.1-.2s.1-.1.2-.1.1,0,.1.1c0,0,.1.1.1.2h-.5Z"/>
            <path class="cls-4" d="m397.5,497.7c-.1,0-.2,0-.2.1v-.1h-.1v.9h.1v-.6q.1-.1.2-.1h.1v.7h.1v-.6c.1-.2,0-.3-.2-.3Z"/>
            <path class="cls-4" d="m398.5,498.5h-.1q-.1,0-.2-.1c0-.1-.1-.1-.1-.2s0-.2.1-.3c0-.1.1-.1.2-.1h.1s0,.1.1.1h.1c0-.1,0-.2-.1-.2s-.1-.1-.2-.1-.2,0-.3.1-.1.2-.1.4c0,.1,0,.3.1.3.1.1.2.1.3.1s.2,0,.2-.1.1-.1.1-.2h-.1q-.1.2-.1.3Z"/>
            <path class="cls-4" d="m398.8,497.7v.9h.1v-.9h-.1Zm0-.3v.2h.1v-.2h-.1Z"/>
            <path class="cls-4" d="m399.2,497.4v1.2h.1v-1.2h-.1Z"/>
            <path class="cls-4" d="m400.3,498.1c0-.1,0-.3-.1-.4s-.2-.1-.3-.1-.2,0-.3.1c-.1.1-.1.2-.1.4,0,.1,0,.3.1.3.1.1.2.1.3.1s.2,0,.2-.1c.1,0,.1-.1.1-.2h-.2q0,.1-.1.1h-.1q-.1,0-.2-.1s-.1-.1-.1-.2l.8.1h0Zm-.6,0q0-.1.1-.2s.1-.1.2-.1.1,0,.1.1c0,0,.1.1.1.2h-.5Z"/>
            <path class="cls-4" d="m400.9,497.7c-.1,0-.2,0-.2.1v-.1h-.1v.9h.1v-.6c0-.1.1-.1.2-.1h.1l-.1-.2h0Z"/>
            <path class="cls-4" d="m401,497.7v.9h.1v-.9h-.1Zm0-.3v.2h.1v-.2h-.1Z"/>
            <path class="cls-4" d="m402.6,498.4c-.1,0-.1.1-.2.1s-.2,0-.3-.1c-.1-.1-.1-.2-.1-.4s0-.3.1-.4.2-.1.3-.1.2,0,.2.1c0,0,.1.1.1.2h.2c0-.1-.1-.2-.1-.3-.1-.1-.2-.1-.3-.1-.2,0-.3.1-.4.2s-.1.3-.1.5,0,.3.1.4.2.2.4.2v.1q.1,0,.1.1s0,.1-.1.1h-.1v.1h.1q.2,0,.2-.2t-.1-.1h0c.1,0,.2,0,.3-.1s.1-.2.1-.3h-.2c-.1-.1-.2,0-.2,0h0Z"/>
            <path class="cls-4" d="m403.6,497.8c-.1,0-.1-.1-.3-.1s-.4.1-.4.3h.1c0-.1.1-.1.2-.1h.1v.2h-.1c-.4,0-.5.1-.5.3q0,.1.1.2c.1,0,.1.1.2.1s.2,0,.3-.1v.1h.1v-.7c.3-.1.3-.2.2-.2h0Zm0,.6l-.1.1h-.2v-.1c0-.1.1-.2.3-.2h.1v.2h-.1Z"/>
            <path class="cls-4" d="m404,497.4v1.2h.1v-1.2h-.1Z"/>
            <path class="cls-4" d="m404.3,497.7v.9h.1v-.9h-.1Z"/>
            <path class="cls-4" d="m405.3,498.5c0-.1.1-.1.1-.2s0-.1-.1-.2-.1-.1-.2-.1-.2,0-.2-.1v-.2h.1c.1,0,.2,0,.2.1h.1c0-.2-.1-.2-.3-.2-.1,0-.2,0-.2.1-.1,0-.1.1-.1.2s0,.1.1.2c0,0,.1.1.2.1s.2,0,.2.1v.2h-.1c-.1,0-.2-.1-.2-.2h-.1c0,.2.1.3.3.3v.1q.1,0,.1.1s0,.1-.1.1h-.1v.1h.1q.2,0,.2-.2t-.1-.1h0q0-.1.1-.2h0Z"/>
            <path class="cls-4" d="m406.4,497.7h-.1l-.1.1c0-.1-.1-.2-.2-.2s-.2,0-.2.1v-.1h-.1v.9h.1v-.5q.1-.1.2-.1h.1v.7h.1v-.6q.1-.1.2-.1h.1v.7h.2v-.6c0-.2-.1-.3-.3-.3h0Z"/>
            <path class="cls-4" d="m407.5,497.8c-.1,0-.1-.1-.2-.1-.2,0-.4.1-.4.3h.1c0-.1.1-.1.2-.1h.1v.2h-.1c-.3,0-.5.1-.5.3q0,.1.1.2s.1.1.2.1.2,0,.3-.1v.1h.2v-.7c.1-.1.1-.2,0-.2h0Zm-.1.6l-.1.1h-.2v-.1c0-.1.1-.2.3-.2h.1v.2h-.1Z"/>
            <path class="cls-4" d="m408.9,498v.1h.3v.2c-.1.1-.2.2-.4.2-.1,0-.2,0-.3-.1-.1-.1-.1-.2-.1-.4s0-.3.1-.4.2-.1.3-.1.2,0,.2.1c.1,0,.1.1.1.2h.2c0-.1-.1-.2-.2-.3-.1-.1-.2-.1-.4-.1s-.3.1-.4.2-.1.3-.1.5,0,.3.1.5c.1.1.2.2.4.2s.3,0,.4-.1v.1h.1v-.8h-.3Z"/>
            <path class="cls-4" d="m409.9,497.7q-.1,0-.2.1v-.1h-.1v.9h.1v-.6q.1-.1.2-.1h.1l-.1-.2c.1,0,0,0,0,0h0Z"/>
            <path class="cls-4" d="m410.6,497.7v.6q-.1.1-.2.1h-.1v-.7h-.1v.6c0,.2.1.3.3.3.1,0,.2,0,.3-.1v.1h.1v-.9h-.3Z"/>
            <path class="cls-4" d="m411.7,497.8q-.1-.1-.3-.1c-.1,0-.2,0-.2.1v-.5h-.2v1.2h.1v-.1q.1.1.2.1c.1,0,.2,0,.3-.1.1-.1.1-.2.1-.3v-.3h0Zm-.1.6c0,.1-.1.1-.2.1s-.2,0-.2-.1v-.4c.1-.1.1-.2.2-.2s.1,0,.1.1v.2c0,.1.1.2.1.3Z"/>
            <path class="cls-4" d="m412.5,497.7v.6q-.1.1-.2.1h-.1v-.7h-.1v.6c0,.2.1.3.3.3.1,0,.2,0,.2-.1v.1h.1v-.9h-.2Z"/>
          </g>
        </g>
        <g>
          <path class="cls-8" d="m412.5,457.5v1.4c0,.7-.1,1.5-.2,2.2-.4,2.2-1.3,4.2-2.6,6-.4.6-.9,1.1-1.4,1.6l-1.4,1.4-8.5,8.5c-.2.2-.3.2-.5,0-2.8-2.8-5.7-5.6-8.5-8.5l-1.5-1.5c-2.1-2.1-3.4-4.7-3.9-7.6-.2-1-.3-2-.2-3.1.2-3.3,1.3-6.2,3.4-8.8.4-.4.7-.8,1.1-1.2h0c2.6-2.4,6-3.9,9.8-3.9,5.1,0,9.6,2.7,12.2,6.7l.1.1c0,.1.1.1.1.2.9,1.4,1.4,3,1.8,4.7.1.3.1.6.1,1,0,.3.1.5.1.8h0Z"/>
          <path class="cls-5" d="m405.8,452.8v.6h-.8c-.6.1-.6.6-.6.6v3.3c0,4.6-5.3,4.4-5.3,4.4v2.5c.1,1.1,1,1.1,1,1.1h.9v.5h-5.8v-.5h.9s.9-.1,1-1.1v-2.5s-5.3.2-5.3-4.4v-3.3s0-.6-.6-.6h-.8v-.6h1.4s2.1-.1,2.1,2.7v3s0,2.6,3.2,2.6v-6.8s0-1.1-1.7-1v-.6h5.5v.6c-1.7-.1-1.7,1-1.7,1v6.8c3.2,0,3.2-2.6,3.2-2.6v-3c0-2.8,2.1-2.7,2.1-2.7h1.3Z"/>
        </g>
      </g>
    </g>
  </g>
</svg>